<svg xmlns="http://www.w3.org/2000/svg" viewBox="0 0 1000 520" preserveAspectRatio="xMidYMid meet">
  <!-- Source: Natural Earth land polygons via world-atlas@2 land-110m; antimeridian strokes split for clean editorial display. -->
  <path d="M311.8 415.6L315.4 417.3L319.3 418L318.1 419.5L315.4 419.6L314 418.6L313.1 419.8L310.7 420.7L307.7 420.3L305.7 419.5L302.8 419L299.3 417.4L296.4 415.9L292.6 412.6L294.9 413.2L298.8 415.2L302.5 416.2L303.9 414.9L304.8 412.9L307.4 411.7L309.4 412.1L310.4 413.4L311.8 415.6ZM337.4 407.6L339.6 408.9L338.8 409.9L335 410.8L333.8 409.8L331.4 411.1L330 409.8L333.3 408.1L335.7 408.8L337.4 407.6ZM695.2 403.6L691 403.8L690.9 402.3L691.3 401.1L691.5 400.5L693.3 401.4L695.9 401.7L696 402.3L695.2 403.6ZM903.9 377.8L906.6 378.8L908.1 378.4L910.2 377.9L911.9 378.1L912.1 381.5L911.2 382.5L910.9 384.8L909.9 384L908 386.1L907.4 385.9L905.7 385.8L904 383.3L903.6 381.4L902 378.9L902.1 377.6L903.9 377.8ZM980.6 378.2L981.2 379.4L983.2 378.2L984 379.5L984 380.7L983 382L981.2 384.1L979.7 385.3L980.8 386.7L978.6 386.7L976.3 387.8L975.5 389.7L973.9 392.6L971.7 393.9L970.4 394.7L967.8 394.7L966 393.7L963 393.5L962.5 392.5L964 390.3L967.5 387.5L969.3 386.9L971.3 385.8L973.7 384.3L975.3 382.8L976.6 380.7L977.6 379.9L978 378.3L980 377L980.6 378.2ZM985 364.5L987 367.5L987.1 365.5L988.4 366.3L988.8 368.5L991 369.4L992.9 369.7L994.5 368.6L995.9 368.9L995.2 371.5L994.4 373.1L992.2 373.1L991.5 374L991.8 375.2L991.3 375.7L990.3 377.3L988.9 379.3L986.8 380.4L986.3 379.7L985.1 379.3L986.7 376.9L985.8 375.3L982.8 374.1L982.9 373.1L984.9 372.1L985.4 369.9L985.3 368L984.1 366.1L984.2 365.5L982.9 364.4L980.7 361.8L979.5 359.8L980.6 359.5L982.1 361.1L984.2 361.9L985 364.5ZM964.2 324L963.2 324.7L961.6 323.9L959.6 322.6L957.9 321.1L956 319.1L955.6 318.1L956.8 318.1L958.4 319.1L959.6 320.1L960.5 320.9L962.8 322.7L964.2 324ZM0 307.8L998.2 308.5L996.5 309.1L996.1 308.1L997.5 307.5L998.4 307.3L0 306.4L0.6 306.3L0.2 307.7L0 307.8ZM639 299.2L639.5 302.6L640.2 304L639.9 305.4L639.4 306.2L638.5 304.5L638 305.4L638.5 307.5L638.3 308.7L637.5 309.4L637.3 311.9L636.2 315.2L634.9 319.2L633.1 324.7L632.1 328.7L630.8 332.1L628.6 332.7L626.1 334L624.5 333.2L622.3 332.2L621.6 330.7L621.4 328.1L620.4 325.8L620.1 323.7L620.6 321.6L621.9 321.1L621.9 320.2L623.3 318L623.5 316.1L622.9 314.8L622.3 313L622.1 310.3L623.1 308.7L623.5 306.8L624.8 306.7L626.4 306.1L627.4 305.6L628.6 305.6L630.2 303.9L632.5 302.2L633.3 300.7L633 299.5L634.1 299.8L635.7 297.8L635.7 296.1L636.7 294.8L637.6 296L638.4 297.3L639 299.2ZM898.8 299.8L899.8 302L901.6 300.9L902.5 302.2L903.8 303.3L903.5 304.6L904.1 307L904.5 308.5L905.2 308.8L906 311.3L905.7 312.8L906.6 314.8L909.6 316.3L911.6 317.7L913.5 318.9L913.1 319.6L914.7 321.4L915.8 324.5L916.9 323.9L918 325.2L918.7 324.7L919.2 327.8L921.1 329.6L922.4 330.7L924.6 333L925.4 335.3L925.4 337L925.3 338.8L926.6 341.2L926.4 343.8L925.9 345.1L925.2 347.7L925.2 349.3L924.7 351.4L923.5 354L921.4 355.5L920.4 357.7L919.5 359.1L918.6 361.6L917.6 363.1L916.9 365.2L916.5 367.2L916.7 368.1L915.1 369.1L912 369.2L909.4 370.4L908.1 371.5L906.4 372.8L904.1 371.5L902.4 371L902.9 369.5L901.3 370L898.9 372.1L896.5 371.3L894.9 370.9L893.3 370.7L890.7 369.8L888.9 368.1L888.3 365.9L887.7 364.4L886.3 363.2L883.7 362.9L884.6 361.5L883.9 359.3L882.5 361.3L880.1 361.9L881.5 360.3L882 358.6L883 357.2L882.8 355L880.5 357.5L878.8 358.5L877.7 360.8L875.6 359.6L875.7 358.1L873.9 356L872.5 354.9L873 354.2L869.4 352.5L867.5 352.4L864.8 351L859.8 351.3L856.2 352.3L853.1 353.3L850.4 353.1L847.5 354.5L845.1 355.2L844.5 356.7L843.5 357.9L841.1 358L839.4 358.2L836.9 357.7L834.9 358L833 358.2L831.4 359.7L830.6 359.6L829.2 360.4L827.8 361.3L825.8 361.2L824 361.2L821 359.3L819.5 358.8L819.6 357.1L821 356.7L821.4 356.1L821.3 355L821.7 353L821.4 351.3L819.9 348.4L819.4 346.8L819.6 345.1L818.4 343.2L818.4 342.4L817.1 341.2L816.8 339L815.2 336.7L814.8 335.4L816 336.7L815.1 334L816.5 334.9L817.3 336L817.3 334.5L815.9 332.2L815.6 331.3L815 330.4L815.3 328.8L815.8 328.1L816.2 326.6L815.9 324.9L817.1 322.8L817.3 325L818.5 323.1L820.7 322.1L822.1 320.9L824.2 319.8L825.5 319.6L826.2 319.9L828.4 318.9L830.1 318.5L830.5 317.9L831.3 317.6L832.8 317.7L835.7 316.9L837.2 315.6L837.9 314L839.6 312.6L839.7 311.4L839.8 309.8L841.7 307.4L842.9 309.9L844.1 309.3L843.1 307.9L843.9 306.5L845.2 307.2L845.5 305L847 303.6L847.7 302.4L849.1 301.9L849.1 301.1L850.3 301.4L850.4 300.7L851.6 300.3L853 299.9L855 301.2L856.6 303L858.3 303L860.1 303.2L859.5 301.7L860.8 299.3L862.1 298.6L861.6 297.9L862.8 296.2L864.5 295.2L865.9 295.5L868.3 295L868.2 293.5L866.2 292.6L867.7 292.1L869.5 292.9L871 294L873.3 294.8L874.1 294.5L875.8 295.4L877.4 294.6L878.5 294.8L879.1 294.3L880.4 295.7L879.7 297.2L878.6 298.4L877.7 298.5L878 299.6L877.2 301.1L876.2 302.5L876.4 303.3L878.6 304.9L880.7 305.8L882.2 306.8L884.2 308.6L885 308.6L886.4 309.3L886.8 310.2L889.5 311.2L891.3 310.2L891.9 308.6L892.4 307.3L892.8 305.8L893.6 303.5L893.2 302.1L893.4 301.2L893.1 299.6L893.5 297.4L894 296.8L893.6 295.8L894.2 294.3L894.8 292.7L894.8 291.9L895.9 290.8L896.7 292.2L896.8 294L897.5 294.4L897.7 295.6L898.7 297.1L898.9 298.7L898.8 299.8ZM845.7 289.3L843.3 289.9L842.9 289.6L843.2 288.6L844.4 286.8L847.1 285.7L847.5 285L849.8 284.4L851.8 284.3L852.7 283.9L853.7 284.3L852.7 285L849.8 286.3L847.5 287.1L845.7 289.3ZM841.4 283.4L841 285L836.8 285.8L833.1 285.5L833.1 284.4L835.3 283.8L837.1 284.7L838.9 284.4L841.4 283.4ZM801.7 279.6L807.1 279.9L807.7 278.7L812.8 280.1L813.8 281.9L818 282.5L821.4 284.2L818.2 285.3L815.2 284.1L812.7 284.2L809.8 284L807.2 283.5L804 282.4L801.9 282.1L800.8 282.4L795.7 281.2L795.2 280L792.7 279.8L794.6 277L798 277.2L800.2 278.3L801.3 278.6L801.7 279.6ZM922.2 275.8L920.7 276.1L920.3 276.9L918.8 277.6L917.3 278.3L915.9 278.2L913.6 277.4L912 276.6L912.2 275.7L914.7 276.1L916.2 275.9L916.7 274.5L917.1 274.4L917.3 276L918.9 275.8L919.7 274.8L921.2 273.7L920.9 272L922.6 272L923.2 272.5L923.1 274.1L922.2 275.8ZM862.4 268.9L863.4 271.1L861.1 270L858.8 269.7L857.2 269.9L855.3 269.8L855.9 268.2L859.4 268.1L862.4 268.9ZM872.6 263.3L873.4 268L876.3 269.7L878.6 266.7L881.8 264.9L884.2 264.9L886.6 265.9L888.7 267L891.7 267.5L896.5 269.5L901.6 271.2L903.5 272.6L905.1 274.1L905.5 275.8L910.1 277.6L910.8 279.1L908.2 279.4L908.9 281.3L911.3 283.2L913.1 286.3L914.7 286.2L914.6 287.5L916.8 288L915.9 288.5L918.9 289.7L918.6 290.6L916.7 290.8L916.1 290L913.7 289.7L910.9 289.3L908.7 287.4L907.1 285.8L905.7 283.3L902.1 282L899.7 282.9L898 283.8L898.4 286L896.2 286.9L894.6 286.5L891.8 286.3L889.3 284L886.5 283.4L885.8 284.2L882.3 284.3L883.4 281.9L885.2 281.1L884.5 278L883.1 275.6L877.7 273.1L875.5 272.9L871.3 270.2L870.5 271.6L869.4 271.9L868.8 270.8L868.8 269.6L866.6 268.1L869.6 267.1L871.6 267.2L871.4 266.4L867.3 266.4L866.2 264.7L863.7 264.1L862.6 262.7L866.3 262L867.7 261.1L872.2 262.3L872.6 263.3ZM847.9 255.9L845.7 258.8L843.6 259.3L840.9 258.8L836.3 258.9L833.8 259.3L833.4 261.5L835.9 264.1L837.4 262.8L842.6 261.8L842.4 263.1L841.2 262.7L840 264.4L837.5 265.5L840.1 269.2L839.6 270.2L842.1 273.5L842.1 275.4L840.6 276.3L839.5 275.3L840.9 272.9L838.2 274L837.5 273.2L837.8 272.1L835.8 270.4L836 267.6L834.2 268.5L834.4 271.8L834.5 276L832.8 276.4L831.6 275.5L832.4 272.9L831.9 270.1L830.8 270.1L829.9 268.1L831.1 266.2L831.5 263.9L832.8 259.6L833.4 258.4L835.8 256.2L838 257.1L841.5 257.5L844.7 257.3L847.4 255.3L847.9 255.9ZM857.5 256.7L857.3 259.3L855.9 259L855.5 260.7L856.6 262.3L855.8 262.6L854.7 260.8L853.9 257.1L854.4 254.8L855.4 253.7L855.6 255.3L857.2 255.5L857.5 256.7ZM793.9 276.9L790.9 277L788.5 274.5L785 272.2L783.8 270.4L781.7 268.1L780.3 265.9L778.2 261.9L775.7 259.5L774.9 257L773.9 254.7L771.4 252.9L769.9 250.4L767.8 248.8L764.9 245.6L764.7 244.2L766.5 244.3L770.8 244.8L773.2 247.7L775.4 249.6L776.9 250.8L779.6 253.9L782.4 254L784.7 256L786.3 258.4L788.4 259.7L787.3 262.1L788.9 263.1L789.9 263.1L790.4 265.1L791.4 266.8L793.4 267L794.7 268.8L794 272.4L793.9 276.9ZM827.4 254.7L830.5 257.4L827.3 257.7L826.3 259.7L826.4 262.3L823.8 264.3L823.7 267.2L822.6 271.6L822.2 270.6L819.1 271.9L818 270.1L816 269.9L814.6 269L811.3 270L810.3 268.7L808.5 268.8L806.2 268.5L805.7 264.6L804.4 263.8L803 261.3L802.6 258.8L803 256.1L804.6 254.2L806.7 255.2L808.8 254.7L809.4 252.2L810.5 251.7L813.9 251L815.9 248.8L817.2 246.9L818.3 245.8L820.7 244.3L822.8 242.3L824.2 240L825.4 240L826.8 241.4L826.9 242.7L828.7 243.5L831.1 244.4L830.9 245.5L829 245.7L829.5 247.1L827.4 248L825.9 250.7L827.9 253.4L827.4 254.7ZM851 235.7L851.3 237.6L851.5 239.2L850.5 241.9L849.5 238.9L848.2 240.4L849.1 242.5L848.3 243.9L845.1 242.2L844.3 240.1L845.1 238.7L843.4 237.4L842.5 238.6L841.2 238.5L839.1 240.1L838.7 239.2L839.8 236.8L841.5 236L843 234.9L844 236.2L846.1 235.4L846.6 234.1L848.5 234L848.4 231.8L850.6 233.2L850.8 234.6L851 235.7ZM725.6 242.1L723.2 242.8L721.9 240.5L721.4 236.3L722.6 231.6L724.6 233.2L725.8 235.3L727.2 238.3L726.8 241.3L725.6 242.1ZM844.4 230.3L843.4 231.3L842.5 233.1L841.7 233.9L839.9 231.9L840.5 231.2L841.2 230.4L841.5 228.6L843 228.4L842.6 230.3L844.7 227.6L844.4 230.3ZM848.6 224.9L849.4 228.1L847.3 227.3L847.3 228.3L848 230.1L846.7 230.7L846.6 228.7L845.7 228.5L845.3 226.8L846.9 227L846.9 225.9L845.2 223.7L847.8 223.8L848.6 224.9ZM837 206.5L838.7 207.4L839.6 206.6L839.8 207.4L839.4 208.5L840.3 210.6L839.6 213L837.9 214L837.5 216.3L838.1 218.6L839.6 218.9L840.8 218.6L844.3 220.2L844 221.8L844.9 222.5L844.7 223.8L842.5 222.4L841.5 220.8L840.8 221.9L839 220.2L836.5 220.6L835.1 220L835.2 218.8L836.1 218L835.3 217.4L834.9 218.4L833.5 216.7L833.1 215.5L833 212.7L834.1 213.7L834.4 209.2L835.3 206.5L837 206.5ZM298.4 202.6L300.8 203L301.1 202.6L303.3 202.6L305 203.3L305.7 203.2L306.2 204.3L307.7 204.2L307.6 205.1L308.9 205.2L310.2 206.2L309.2 207.4L307.9 206.8L306.6 206.9L305.7 206.8L305.2 207.3L304.1 207.5L303.7 206.8L302.8 207.2L301.7 209.2L301 208.7L300.8 207.9L299 207.4L297.7 207.6L296 207.4L294.7 207.9L293.2 207L293.4 206.1L296 206.5L298.1 206.7L299.1 206.1L297.8 204.8L297.8 203.7L296.1 203.3L296.7 202.5L298.4 202.6ZM806.5 206L804.1 207.4L801.8 206.5L801.7 204L803.1 202.7L806.1 201.9L807.7 202L808.4 203.1L807.1 204.4L806.5 206ZM278.7 194.2L279.8 195.3L282.4 195L283.4 195.6L285.7 197.4L287.4 198.7L288.4 198.7L290 199.3L289.8 200.1L291.9 200.2L294 201.4L293.6 202.1L291.8 202.4L289.9 202.6L288 202.4L284 202.6L285.9 201L284.7 200.3L283 200.1L282 199.2L281.3 197.6L279.8 197.7L277.2 196.9L276.3 196.3L272.7 195.9L271.8 195.3L272.8 194.6L270.1 194.5L268.1 196L266.9 196L266.5 196.7L265.1 197L264 196.7L265.4 195.9L266 194.8L267.3 194.2L268.7 193.6L270.8 193.3L271.5 193L273.9 193.2L276.1 193.3L278.7 194.2ZM836.6 194.2L835.4 196.5L833.9 194.1L833.6 191.9L835.3 189.1L837.5 186.9L838.8 187.8L838.3 189.5L836.6 194.2ZM874 161.3L874.3 162.3L872.8 164.1L871.6 163.2L870.2 163.8L869.5 165.5L867.7 164.7L867.7 163.3L869.2 161.6L870.8 161.9L872 160.7L874 161.3ZM543.1 149.6L542.1 151.8L542.5 152.7L541.9 154.2L539.8 153.1L538.4 152.8L534.5 151.3L534.9 149.9L538.2 150.1L541 149.8L543.1 149.6ZM525.6 141L527.2 143L526.9 146.8L525.6 146.6L524.5 147.6L523.4 146.8L523.3 143.4L522.7 141.7L524.2 141.8L525.6 141ZM891.6 152.7L890.6 155L891 156.5L889.6 158.5L886 159.8L881.2 160L877.2 163.3L875.3 162.2L875.2 160.1L870.4 160.7L867.1 162.1L863.8 162.1L866.7 164.2L864.8 169.1L863 170.4L861.7 169.2L862.4 166.6L860.6 165.8L859.5 163.8L862.1 162.9L863.5 161.1L866.3 159.6L868.4 157.6L873.9 156.8L876.9 157.4L879.8 152.2L881.6 153.6L885.7 150.7L887.3 149.6L889 146.1L888.6 142.8L889.7 141L892.7 140.5L894.2 144.5L894.1 146.8L891.6 149.7L891.6 152.7ZM899.7 132.4L901.7 133L903.7 131.8L904.3 135L900.2 135.8L897.7 138.7L893.4 136.7L891.8 139.9L888.8 139.9L888.4 137L889.8 134.8L892.7 134.7L893.5 130.7L894.4 128.4L897.6 131.4L899.7 132.4ZM156.9 119.9L155.5 120.3L151 118.9L150.1 117.9L147.6 116.9L147.1 116.1L144.3 115.6L143.2 114L143.5 113.3L146.4 114L148.1 114.4L150.7 114.7L151.6 115.7L153 117.1L155.8 118.3L156.9 119.9ZM344.1 113.6L342.2 116.1L344 115.1L345.9 115.7L344.9 116.7L347.4 117.5L348.7 116.8L351.5 117.7L350.6 119.8L352.5 119.3L352.9 120.9L353.8 122.7L352.6 125.2L351.3 125.3L349.5 124.8L350.1 122.4L349.3 122L346.1 124.6L344.5 124.5L346.4 123.1L343.7 122.4L340.8 122.6L335.4 122.5L334.9 121.6L336.7 120.6L335.5 119.8L337.8 118.1L340.7 113.5L342.4 111.8L344.8 110.8L346.1 111L345.6 111.8L344.1 113.6ZM131.4 103.9L134 103.7L133.2 106.9L135.6 109.3L134.5 109.3L132.8 107.9L131.8 106.6L130.4 105.7L129.9 104.4L130.1 103.5L131.4 103.9ZM899 113.4L901.8 118.5L897.7 117.6L896 121.7L898.7 124.7L898.6 126.7L896.5 125L894.7 127.2L894.2 124.8L894.5 122L894.2 118.8L894.8 116.7L894.9 112.8L893.3 110L893.6 106L896.1 104.7L895 103.3L896.3 102.9L897 104.9L897.9 107.6L897.9 110.5L899 113.4ZM481.1 109L476.2 110.7L472.3 110.3L474.5 107.3L473.1 104.3L476.9 102.1L479 100.7L481.3 100.6L484.3 102.4L482.8 104.4L483.2 106.4L481.1 109ZM535.2 99.4L533.6 101.7L530.7 100.1L530.3 98.9L534.4 97.9L535.2 99.4ZM75 95L72.2 96.1L70.8 95.4L70.4 94L72.9 93L74.4 92.5L76.2 92.7L77.4 93.6L75 95ZM491.7 90.6L488.7 93.7L491.5 93.3L494.6 93.4L493.8 95.7L491.3 98.3L494.2 98.5L496.9 102.2L498.8 102.7L500.5 106L501.3 107.1L504.7 107.6L504.3 109.5L502.9 110.3L504 111.8L501.5 113.3L497.8 113.3L493.1 114.1L491.8 113.5L490 114.9L487.4 114.6L485.4 115.7L484 115.1L488 112.1L490.5 111.4L486.2 111L485.4 109.8L488.3 108.9L486.8 107.3L487.3 105.5L491.4 105.7L491.8 104L489.9 102.2L486.5 101.7L485.9 100.9L486.9 99.6L486 98.8L484.5 100.2L484.3 97.4L482.9 96L483.9 93L486.1 90.6L488.3 90.9L491.7 90.6ZM263.4 70.3L264 71.6L265.4 71.1L267 71.9L270 72.9L273.2 73.8L273.5 75.2L275.5 74.9L277.5 75.9L275 76.8L270.7 76.1L269.1 74.8L266.4 76.4L262.4 77.9L261.5 76.2L257.7 76.4L260.1 75L260.5 72.7L261.4 70.1L263.4 70.3ZM459.7 68L459.1 69.9L462.2 71.9L458.6 74.1L450.6 76L448.2 76.6L444.5 76.1L436.8 75.2L439.5 73.9L433.5 72.5L438.4 72L438.3 71.1L432.4 70.5L434.3 68.6L438.5 68.1L442.8 70.1L447.1 68.5L450.6 69.4L455.1 67.8L459.7 68ZM289.3 66L286.1 66.2L285.5 64.7L286.6 63.1L289.2 62.7L291.4 63.5L291.4 64.8L291.1 65.2L289.3 66ZM0 60.8L6.8 63L14.1 65.9L13.9 67.6L15.7 68.4L15.1 66.3L22.6 66.7L28.1 69.4L25.3 70.7L20.8 71L20.7 73.8L19.6 74.4L17 74.3L14.9 73.3L11.2 72.4L10.5 71.2L7.7 70.7L4.6 71.1L3.1 70.1L3.7 69L0.3 69.7L1.6 71.1L0 72.3L1000 72.3L996.4 73.6L992.8 73.4L995.3 74.9L997 77.3L998.2 78.1L998.6 79.2L997.9 80L992.7 79.4L984.9 81.6L982.4 81.9L978.2 83.9L974.2 85.7L973.1 87L969.2 85L961.9 87.3L960.7 86.2L958 87.4L954.3 87L953.4 88.9L950 91.7L950.1 92.9L953.3 93.6L952.9 97.8L950.4 97.9L949.2 100.3L950.3 101.5L945.5 103L944.5 106.3L940.4 107L939.5 109.9L935.5 112.6L934.5 110.6L933.3 106.4L931.8 100L933.1 96L935.4 94.3L935.6 92.9L939.9 92.3L944.9 88.6L949.6 85.7L954.6 83.4L956.9 79.3L953.5 79.5L951.8 81.9L944.8 85.1L942.5 81.5L935.3 82.5L928.4 87.4L930.7 89.1L924.5 89.9L920.2 90.2L920.4 88.1L916.1 87.7L912.6 89.1L904.1 88.6L895 89.4L886 95.1L875.3 101.9L879.7 102.3L881.1 104.1L883.8 104.7L885.6 103.3L888.6 103.5L892.6 106.6L892.7 109.1L890.5 112L890.3 115.4L889.1 120L884.9 124.2L883.9 126.2L880.2 129.6L876.4 132.9L874.6 134.6L870.9 136.3L869.2 136.4L867.4 135L863.7 137.1L863.3 138L862.2 137.9L861 138.8L860.2 139.8L860.3 141.9L858.9 142.5L858.4 143L857.3 143.9L855.5 144.4L854.3 145.1L854.2 146.4L853.8 146.7L855 147.2L856.5 148.5L858.9 151.9L859.6 153.7L859.6 157.1L858.6 158.7L856.1 159.2L853.8 160.4L851.3 160.7L851 159.1L851.6 156.9L850.3 153.9L852.4 153.4L850.5 150.9L849.1 150.4L848.8 150.9L848 151.2L847.9 150.6L847.2 150.4L846.4 149.9L847.2 148.6L847.8 148.3L847.6 147.8L848.3 146.2L848.1 145.7L846.5 145.4L845.2 144.7L841.3 145.5L839.3 146.8L836.3 147.6L837.7 146.3L837.2 145.2L839.4 143.2L837.9 141.7L835.5 142.7L832.3 144.7L830.6 146.6L827.9 146.7L826.5 148.1L827.9 150L830.2 150.5L830.3 151.8L832.5 152.7L835.6 150.6L838.1 151.7L839.9 151.8L840.3 153.3L836.4 154.1L835.1 155.7L832.4 157.1L831 159.2L834 160.7L835.1 163.6L836.7 166.2L838.6 168.4L838.6 170.6L836.8 171.4L837.5 172.9L839.1 173.8L838.7 176.2L838 178.5L836.5 178.7L834.4 181.8L832.2 185.6L829.6 189.1L825.8 191.7L821.9 194.2L818.8 194.5L817.1 195.8L816.1 194.9L814.6 196.3L810.7 197.7L807.7 198.2L806.8 201.2L805.2 201.4L804.5 199.3L805.2 198.2L801.4 197.3L800.1 197.7L796.4 200.2L794.1 202.9L793.5 204.9L795.6 208L798.2 211.8L800.7 213.5L802.4 215.9L803.7 221.2L803.3 226.3L801 228.2L797.8 230.1L795.6 232.5L792.1 235.2L791.1 233.3L791.9 231.3L789.8 229.7L787.5 229.3L786.4 227.8L785 224.8L782.5 223.5L780.1 223.5L780.5 221.3L778 221.3L777.8 224.4L776.3 228.7L775.4 231.2L775.6 233.3L777.4 233.4L778.6 236L779.1 238.5L780.6 240.2L782.3 240.5L783.7 242L784.4 242.3L786 244L787.2 246L787.3 247.9L787 249.2L787.3 250.2L787.5 251.9L788.5 252.7L789.6 255.3L789.5 256.3L787.6 256.5L784.9 254.3L781.6 252L781.3 250.6L779.7 248.6L779.3 246.2L778.3 244.7L778.6 242.5L778 241.3L776.9 240.2L776.4 238.8L775 237.2L773.6 235.8L773.2 237.5L772.6 235.9L772.9 234.1L773.8 231.3L773.5 229.2L774.3 226.9L773.4 225.2L773.6 222.1L772.5 220.6L771.6 217.1L771.1 213.5L769.9 211.1L768.1 212.5L764.9 214.6L763.4 214.3L761.6 213.7L762.6 210.1L762 207.4L759.8 204.1L760.2 203L758.5 202.6L756.6 200.3L755.8 198.8L755.6 197.3L755.1 195.9L753.9 194.2L751.4 194.1L751.6 195.3L750.8 196.9L749.6 196.3L749.2 196.9L748.4 196.5L747.3 196.3L746.9 197.3L745 197.3L741.6 197.9L741.8 200.1L740.3 201.8L736.3 203.7L733.2 207.1L731.1 209L728.3 210.8L728.3 212.2L726.9 212.9L724.4 213.9L723.1 214.1L722.3 216.3L722.9 220L723 222.4L721.8 225.2L721.8 230.1L720.4 230.2L719.1 232.4L720 233.4L717.4 234.2L716.5 236.2L715.4 237L712.8 234.3L711.5 230.2L710.4 227.3L709.4 226L708 223.2L707.3 219.6L706.8 217.8L704.3 213.8L703.1 208.2L702.3 204.5L702.3 201L701.7 198.3L697.7 200L695.7 199.7L692.1 196.2L693.5 195.1L692.6 194L689.4 191.6L687.3 190.8L686.5 188.7L684.4 186.6L679.2 187.1L674.7 187.1L670.8 187.6L665.6 186.7L662.6 186L659.4 185.6L658.3 182.1L656.9 181.6L654.8 182.1L652 183.5L648.6 182.5L645.8 180.3L643.1 179.5L641.3 176.8L639.2 172.9L637.7 173.4L635.9 172.4L634.9 173.5L633.3 173.4L633.8 174.7L633.6 175.3L634.5 177.5L635.6 180L636.9 180.7L637.4 181.7L639.3 182.9L639.5 184.1L639.2 185.1L639.6 186L640.4 186.8L640.7 187.8L641.1 188.5L641 186.4L641.7 184.9L642.5 184.6L643.3 185.5L643.4 187.2L642.7 188.9L643.3 190L643.8 189.8L643.9 190.6L646 190.2L648.3 190.2L650 190.3L651.9 188.4L654 186.5L655.8 184.7L656.6 183.7L656.9 184L656.6 185.2L656.3 185.7L656.7 188L657.9 190L659.5 191L661.5 191.4L663.1 191.9L664.4 193.6L665.1 194.5L666.1 194.9L666.1 195.5L665.1 197.3L664.7 198.1L663.5 199L662.5 201L661.2 200.8L660.6 201.5L660.2 203L660.5 204.9L660.3 205.3L659 205.3L657.2 206.3L657 207.7L656.3 208.4L654.6 208.3L653.5 209.1L653.5 210.2L652.2 211L650.7 210.8L648.8 211.7L647.5 211.9L645.5 212.7L645 214L644.9 214.9L642.1 216.2L637.7 217.5L635.2 219.5L634 219.7L633.2 219.5L631.5 220.7L629.8 221.3L627.4 221.4L626.7 221.6L626.1 222.4L625.4 222.6L625 223.3L623.6 223.2L622.7 223.6L620.8 223.5L620.1 221.8L620.1 220.2L619.7 219.4L619.1 217.2L618.3 216.1L618.9 215.9L618.6 214.6L619 214L618.8 212.8L618.5 211.5L617.6 210.7L617.4 209.5L616 208.5L614.5 206.1L613.7 203.7L611.8 201.7L610.6 201.2L608.7 198.5L608.4 196.5L608.5 194.8L606.9 191.6L605.6 190.4L604.1 189.8L603.2 188.2L603.4 187.5L602.6 186L601.8 185.4L600.7 183.2L599 180.9L597.6 178.9L596.2 178.9L596.6 177.4L596.8 176.3L597.1 175.2L597 174.8L596.2 175.9L595.6 178.1L594.9 179.6L594.2 180.1L593.3 179.2L592 177.9L590.1 173.8L589.8 174L590.9 177.1L592.6 180L594.7 184.5L595.8 186L596.7 187.7L599.1 190.9L598.6 191.4L598.7 193.3L601.9 195.9L602.4 196.4L603.3 199.3L602.7 199.8L603.1 202.8L604.1 206.2L605.2 206.9L606.7 208L608.3 211.3L609.1 214L610.6 215.4L614.4 218.1L615.9 219.8L617.4 221.4L618.3 222.4L619.7 223.3L620.3 224.2L620.2 225.4L618.7 226.1L619.8 226.9L620.8 227.4L621.3 228.6L622.5 229.8L623.9 229.8L626.5 229.1L629.6 228.8L632 227.9L633.4 227.7L634.4 227.1L636 227L636.9 227L638.1 226.5L639.6 226.3L640.9 225.3L642 225.3L642 226.1L641.8 227.7L641.8 229.3L641.2 230.3L640.4 233.4L639.1 236.7L637.4 240.3L635 244.6L632.6 247.8L629.3 251.7L626.6 254.1L622.4 257L619.8 259.2L616.8 262.7L616.1 264.2L615.5 264.9L613.6 266L612.9 267.2L611.8 267.4L611.4 269.5L610.6 270.6L610 272.6L608.9 273.5L607.6 277.1L607.8 278.7L609.6 279.8L609.6 280.5L608.9 282.3L609 283.1L608.9 284.5L609.8 286.3L611 289.2L612 289.8L612.4 291.1L612.3 294L612.7 296.5L612.8 301L613.3 302.4L612.4 304.5L611.4 306.5L609.6 308.3L607 309.4L603.9 310.8L600.8 313.9L599.7 314.4L597.8 316.5L596.6 317.2L596.4 319.2L597.7 321.4L598.3 323.1L598.3 324L598.8 323.8L598.7 326.6L598.3 328L598.9 328.5L598.5 329.7L597.3 330.7L595 331.7L591.7 333.3L590.5 334.3L590.7 335.5L591.4 335.7L591.2 337.3L590.5 339.4L590.2 341.8L589.5 343.1L587.6 344.5L587 344.9L585.8 346.4L585.1 347.9L583.5 350L580.3 352.9L578.4 354.7L576.3 356L573.4 357.1L572 357.3L571.6 358.1L569.9 357.6L568.5 358.2L565.5 357.6L563.9 358L562.7 357.8L559.8 359L557.5 359.4L555.8 360.5L554.5 360.6L553.3 359.6L552.4 359.5L551.2 358.2L551 358.6L550.7 357.8L550.7 356.1L549.8 354.2L550.7 353.7L550.6 351.5L548.8 348.8L547.4 346.3L547.4 346.3L545.4 342.6L543.3 340.4L542.3 338.3L541.6 335.4L541 333.4L540 328.9L540 325.5L539.6 323.9L538.5 322.7L537.1 320.3L535.6 316.8L535 315L532.8 312.2L532.6 310L532.3 308.2L532.7 305.6L533.7 303L533.8 301.7L534.7 299.1L535.4 298L537 296.1L537.9 294.8L538.2 292.6L538 291L537.2 290L536.4 288.2L535.8 286.5L535.9 285.9L536.8 284.7L535.9 281.9L535.4 280L534 278.2L534.2 277.6L533.8 276.7L533.1 274.6L530.8 271.5L528 268.6L526.1 266.2L524.4 263.2L524.5 262.3L525.1 261.3L525.8 259.2L526.4 257.1L525.8 256.6L526.8 253.4L527.2 251.1L526.1 249.2L524.9 248.7L524.3 247.4L523.6 247L523.6 246.2L520.7 247.3L519.7 247.1L518.6 247.7L516.4 247.7L514.9 245.9L514 243.8L512 241.9L509.9 241.9L507.5 241.9L505.2 242.3L502.9 242.9L498.6 244.6L497 245.6L494.5 246.4L492.1 245.6L490.8 245.6L488.9 245L487.1 245.1L483.8 245.6L481.9 246.4L479.1 247.5L478.6 247.4L477.8 247.4L475 246L472.5 243.8L470.1 242.3L468.2 240.4L467.5 240.2L465.5 239L464 237.5L463.5 236.4L463.2 234.3L462 232.6L460.9 231.4L460.2 231.1L459.5 230.5L459.2 229.2L458.8 228.6L458 228.1L456.5 226.9L455.3 226.7L454.7 225.9L454.7 225.5L453.9 224.8L453.7 224.2L453.2 222L453.6 220.7L452.4 218.5L451 217.4L452.3 216.9L453.6 214.9L454.3 213.4L454 211.8L454.8 210.4L455.1 207.7L454.8 204.8L454.5 203.4L454.8 202L454.1 200.6L452.6 199.3L452.7 198.1L452.9 196.8L453.9 196L454.8 194.5L454.6 193.5L455.6 191.5L457.2 189.6L458.1 189.2L458.8 187.5L458.9 185.9L459.9 184.2L461.7 183.1L463.5 180.2L464.9 179L467.5 178.7L469.7 176.7L471.1 175.9L473.4 173.5L472.7 169.9L473.8 167.4L474.2 165.9L476 164L478.7 162.7L480.8 161.5L482.7 158.5L483.5 156.7L485.6 156.7L487.2 157.9L489.9 157.7L492.8 158.4L494 158.4L496.6 156.8L499.6 156.3L501.4 155.1L504.1 154.3L508.8 153.7L513.4 153.5L514.8 153.9L517.4 152.8L520.4 152.8L521.5 153.4L523.4 153.3L526.4 152.1L528.4 152.4L528.3 153.9L530.6 152.8L530.8 153.4L529.4 154.8L529.4 156.2L530.4 156.9L530 159.4L528.2 160.8L528.7 162.4L530.2 162.4L530.9 163.8L531.9 164.3L535.2 165.3L536.3 165L538.7 165.5L542.3 166.8L543.6 169.4L546.1 169.9L550.1 171.1L553 172.6L554.4 171.8L555.7 170.5L555.1 168.3L555.9 166.9L557.9 165.5L559.8 165.1L563.6 165.7L564.5 167L565.6 167L566.5 167.5L569.2 167.8L569.9 168.8L573.6 168.8L576.3 169.5L579 170.4L580.3 170.8L582.5 169.9L583.6 169.1L586 168.8L588 169.2L588.8 170.6L589.4 169.7L591.6 170.4L593.8 170.5L595.2 169.8L596 168.9L595.8 168.7L596.5 167.3L597.1 165.2L597.5 164.4L597.6 164.4L598.6 162L599.9 160L600 159.9L599.7 157.7L600.4 156.5L599.4 155.2L600.4 154.1L598.8 154.4L596.4 153.7L594.5 155.4L590.3 155.7L588.1 154.1L585.1 154L584.4 155.2L582.5 155.6L579.8 154L576.8 154.1L575.1 151.2L573.1 149.6L574.5 147.4L572.7 146L575.8 143.2L580.1 143.1L581.2 140.9L586.5 141.3L589.9 139.4L593.1 138.6L597.7 138.6L602.5 140.6L606.5 141.7L609.8 141.3L612.1 141.5L615.4 140L615.8 138.8L615.1 136.8L613.5 135.7L612 135.4L611 134.5L607.4 132.1L604.3 131L601.9 129.3L603.9 128.8L606.2 126.4L604.6 125.3L608.7 124.1L608.7 123.5L606.2 123.9L604 124.2L602.1 125.1L599.5 125.2L597.1 126.3L597.3 128.1L598.6 128.8L601.5 128.6L600.9 129.7L597.9 130.2L594.1 131.8L592.6 131.3L593.2 129.9L590.1 129.1L590.6 128.5L593.3 127.5L592.5 126.9L588.2 126.2L588 125.1L585.4 125.4L584.4 127L582.2 129.2L582.3 129.9L580.9 130.5L580.1 130.2L579.3 133.7L577.9 134.9L576.9 137L577.8 138.6L578.1 139.8L580.5 140.7L580 141.4L576.7 141.6L575.5 142.4L573.2 144L572.3 142.7L572.4 142.1L570.7 142L569.2 141.7L565.9 142.5L567.8 144.1L566.4 144.6L564.8 144.6L563.4 143.1L562.9 143.7L563.5 145.4L564.9 146.8L563.8 147.4L565.4 148.7L566.7 149.6L566.8 151.2L564.2 150.5L565 151.9L563.3 152.2L564.3 154.8L562.5 154.8L560.2 153.6L559.2 151.2L558.7 149.3L557.6 148L556.2 146.3L556 145.5L555.5 145.3L555.4 144.7L553.9 143.7L553.7 142.3L553.9 140.4L554.3 139.5L553.8 139L553.2 138.8L552.4 137.9L551.2 137.3L548.6 136.2L547 135.2L544.5 134.3L542.2 132.2L542.7 132L541.4 130.8L541.4 129.8L539.6 129.3L538.8 130.6L537.9 129.6L538 128.6L538.1 128.6L538.7 128.3L536.5 127.9L534.2 128.9L534.4 130.3L534.1 131.2L535 132.6L537.6 134.1L539 136.5L542.1 138.8L544.2 138.8L544.9 139.4L544.1 140L546.6 141L548.7 141.9L551 143.4L551.3 144L550.8 145L549.3 143.6L546.9 143.2L545.7 145L547.7 146.1L547.4 147.6L546.2 147.8L544.7 150.3L543.6 150.5L543.6 149.6L544.1 148.1L544.7 147.4L543.7 145.8L542.8 144.3L541.7 143.9L540.8 142.7L539.1 142.2L537.9 141L535.8 140.8L533.6 139.5L531.1 137.6L529.2 136L528.3 133.1L527 132.8L524.7 131.8L523.4 132.2L521.8 133.6L520.7 133.8L518.1 135.4L512.7 134.6L508.6 135.6L508.3 137.3L508.4 139L505.8 140.9L502.3 141.5L502 142.5L500.3 144.1L499.2 146.4L500.3 148.1L498.7 149.4L498.1 151.3L496 151.8L494 154.1L490.5 154.1L487.9 154L486.1 155.1L485.1 156.2L483.7 155.9L482.7 154.9L481.9 153.3L479.3 152.8L478.2 153.6L476.7 153.2L475.3 153.5L475.7 151.2L475.4 149.5L474.2 149.2L473.5 148.1L473.8 146.2L474.9 145.2L475.1 144L475.6 142.2L475.6 141L475 140L474.9 139L475 137L473.9 135.7L477.8 133.6L481.2 134.1L485 134.1L487.9 134.6L490.2 134.5L494.7 134.6L496.2 132.8L496.7 127.1L493.8 124L491.8 122.6L487.5 121.5L487.2 119.4L490.8 118.7L495.5 119.5L494.6 116.2L497.3 117.4L503.7 115.2L504.6 112.8L507 112.2L509.2 111.7L510.6 110.9L513.1 106.6L516.9 105.4L519.2 105.5L519.7 104.9L522 104.7L522.6 105.4L524.4 103.9L523.8 102.9L523.7 101.2L522.6 99.6L522.5 96.7L522.9 95.9L523.7 95L526.2 94.8L527.2 94L529.4 93.2L529.3 94.7L528.5 95.6L528.8 96.5L530.3 96.9L529.6 98L528.8 97.7L526.8 99.8L527.6 101.2L527.6 102.3L530.4 102.9L530.4 104L533.2 103.4L534.8 102.6L537.9 103.8L539.2 104.7L541.1 103.9L545.5 102.5L549 101.5L551.7 102L551.9 102.7L554.6 102.8L555.2 101.5L559.1 100.6L558.5 98.1L558.6 96L559.9 94.1L562.6 93.2L564.8 95.3L567 95.3L567.5 93L567.9 91.3L566.8 91.7L565.1 90.7L564.8 89L568.3 88.2L571.8 87.8L574.9 88.3L577.7 88.2L580.9 86.6L578 85.2L572.9 85.4L568 86.5L563.5 87.1L561.9 85.5L559.2 84.6L559.8 81.7L558.5 79.1L559.8 77.4L562.3 75.6L568.7 72.5L570.5 71.9L570.3 70.7L566.4 69.3L561.6 70.1L558.9 72.1L559.4 73.9L554.9 76.2L549.6 78.7L547.6 82.8L549.5 84.8L552.2 86.4L549.6 89.7L546.7 90.4L545.7 95.2L544.1 97.9L540.7 97.6L539.2 99.9L536 100.1L535.1 97.3L532.7 94.1L530.6 90L528.8 88.2L523.3 91.5L519.6 92.2L515.7 90.7L514.7 87.6L513.9 81L516.4 79.1L523.8 76.7L529.2 73.7L534.3 69.7L541 64.1L545.7 61.9L553.3 58.3L559.4 57L564 57.2L568.2 54.8L573.2 54.9L578.2 54.4L586.9 56.5L583.3 57.2L586.4 59.1L589.3 58L593.8 59.8L601.4 60.5L611.9 63.7L614.1 65.1L614.2 67L611.2 68.6L606.6 69.3L594.2 67.1L592.2 67.5L596.7 69.6L597.1 73.9L600.6 74.8L602.8 75.5L603.2 74.1L601.4 72.9L603.3 71.8L610 73.6L612.3 72.9L610.5 70.8L616.9 68L619.5 68.1L622.1 69.1L623.7 67.1L621.4 65.4L622.7 63.7L620.7 61.9L628.5 62.8L630.1 64.5L626.5 64.8L626.6 66.4L628.7 67.4L633 66.8L633.7 64.9L639.5 63.6L649.2 61.1L651.3 61.2L648.6 63L652 63.3L654 62.3L659.2 62.2L663.3 61L666.5 62.8L669.7 60.8L666.7 59.2L668.2 58.2L676.4 59.1L680.2 60L690.3 63.3L692.2 61.8L689.3 60.2L689.3 59.6L685.9 59.4L686.8 58L685.3 55.7L685.3 54.8L690.4 52.2L692.2 49.6L694.3 49L701.6 49.8L702.2 51.4L699.6 53.7L701.3 54.6L702.2 56.6L701.6 60.6L704.6 62.4L703.4 64.3L698 68.4L701.2 68.8L702.3 67.8L705.3 67.1L706.1 65.6L708.5 64.2L706.9 62.6L708.2 60.7L705.1 60.5L704.4 58.9L706.7 55.9L703.1 53.6L708 51.7L707.4 49.6L708.8 49.5L710.2 51.1L709.1 53.9L712.1 54.4L710.8 52.4L715.5 51.2L721.3 51.1L726.4 52.7L723.9 50.3L723.6 47.2L728.5 46.7L735.2 46.8L741.2 46.4L738.9 44.9L742.1 43L745.3 42.9L750.7 41.5L758.1 41.1L759 40.3L766.3 40L768.5 40.7L774.8 39.2L779.9 39.2L780.7 38L783.3 36.7L789.9 35.5L794.6 36.5L790.8 37.2L797.1 37.6L797.9 39.1L800.4 38.4L808.5 38.4L814.8 39.8L817 40.9L816.3 42.4L813.3 43.2L806 44.8L803.9 45.7L807.3 46.1L811.4 46.8L813.9 46.3L815.4 48.1L816.6 47.4L821 46.9L829.9 47.4L830.6 48.8L842.2 49.2L842.4 47L848.3 47.5L852.7 47.5L857.2 49L858.5 50.8L856.8 52.1L860.3 54.3L864.7 55.5L867.4 52.5L871.8 53.8L876.6 53L881.9 53.9L884 53.1L888.5 53.5L886.5 50.8L890.2 49.5L915.3 51.4L917.6 53.1L924.9 55.3L936.1 54.8L941.7 55.3L944 56.5L943.6 58.6L947.1 59.4L950.8 58.8L955.7 58.7L960.9 59.3L966.2 59L971 61.6L974.5 60.6L972.2 58.8L973.5 57.5L982.3 58.3L988.1 58.1L996.1 59.5L0 60.8ZM636.4 140.7L637.8 142.8L639.1 142.9L640 143.7L637.7 143.9L637.2 146.2L636.7 147.2L635.7 147.9L635.8 149.3L636.7 151.4L639.3 152L641.2 153.5L645.2 154L649.5 153.2L649.8 152.5L649.3 150.5L649.7 147.5L647.5 146.5L648.2 144.5L646.4 144.3L647 141.9L649.6 142.6L652 141.7L650 140L649.2 138.3L647 139L646.7 141.2L645.8 139.3L645.7 138.6L646.4 137.4L645.8 136.4L642.6 135.4L641.4 132.8L639.8 132.1L639.7 131.1L642.4 131.4L642.5 129.3L644.9 128.8L647.3 129.3L647.8 126.4L647.3 124.6L644.6 124.8L642.2 124.1L639 125.4L636.4 126L635.1 127.7L632.4 128.1L629.7 131.1L632.2 133.9L631.9 135.8L635 139.2L636.4 140.7ZM234.3 60.4L232.6 61.4L228.8 60.5L226.6 60.8L222.8 59.5L225.2 58.6L227.2 57.4L230.1 58.2L231.8 58.7L232.6 59.3L234.3 60.4ZM0 53.4L1000 55.4L996.9 55.5L996.5 54.6L0 53.4ZM0 53.4L0.4 53.3L2.7 53.3L6.7 54.1L6.5 54.5L3.6 55.2L0 55.4L0 53.4ZM248.5 59.2L248.5 62.2L252.2 59.9L255.5 61.8L254.7 63.9L257.4 65.9L260.3 63.8L262.3 61.3L262.4 58.1L266.4 58.3L270.5 58.8L274.2 60.2L274.4 61.6L272.3 63.2L274.3 64.7L273.9 66.1L268.5 68.1L264.6 68.6L261.8 67.7L260.9 69.2L258.2 71.6L257.4 72.9L254.2 74.8L250.2 75L248 76.2L247.9 78.1L244.6 78.5L241.2 80.8L238.2 84.1L237.1 86.3L237 89.7L241.1 90.2L242.3 92.9L243.6 95.1L247.5 94.5L252.7 95.8L255.4 96.9L257.4 98.2L260.9 99L263.9 100.2L268.4 100.4L271.5 100.7L271 103.2L271.9 106.1L273.9 109.3L278 112.1L280.2 111.1L281.7 108.2L280.2 103.6L278.3 102.1L282.7 100.7L285.8 98.7L287.4 96.7L287.2 94.7L285.3 92.3L281.9 90.1L285.2 87.1L284 84.5L283 80L285 79.3L289.7 80.1L292.6 80.4L294.9 79.6L297.5 80.6L300.9 82.3L301.7 83.4L306.7 83.6L306.6 86L307.5 89.7L310.1 90.1L312.1 91.8L316.1 90.2L318.8 87L320.6 85.7L322.8 88.3L326.4 92L329.5 95.4L328.3 97.2L332 98.9L334.5 100.5L339 101.3L340.7 102.2L341.8 104.6L344 105L345.1 106.1L345.3 109.4L343.3 110.4L341.3 111.5L336.7 112.5L333.2 114.9L328.5 115.3L322.6 114.7L318.4 114.7L315.6 114.9L313.2 117L309.7 118.2L305.7 122.1L302.5 124.7L304.8 124.3L309.3 120.5L315.1 118.1L319.3 117.8L321.7 119.2L319.1 121.1L320 124.2L320.9 126.4L324.5 127.9L329.1 127.4L331.9 124.2L332.1 126.3L333.9 127.3L330.4 129.2L324.3 131L321.5 132.1L318.4 134.2L316.3 134L316.2 131.5L321 129.2L316.6 129.3L313.5 129.6L314 130.6L311 131.9L308.2 132.9L305.2 133.8L303.6 135.7L303.3 136.2L303.3 137.7L304.2 139.2L305.3 139.3L305 138.2L305.9 138.9L305.7 139.7L303.8 140.2L302.4 140.1L300.4 140.6L299.2 140.8L297.6 140.9L295.3 141.8L299.3 141.2L300.2 141.8L296.3 142.6L294.5 142.6L294.6 142.3L293.7 143.1L294.6 143.2L294 145.3L291.9 147.5L291.7 146.8L291.1 146.6L290.2 145.9L290.8 147.4L291.4 148L291.5 149.1L290.6 150.2L289.1 152.5L288.8 152.4L289.7 150.4L288.2 149.3L287.9 146.9L287.4 148.1L288 150L286.2 149.6L288.1 150.5L288.2 153.2L289 153.4L289.3 154.4L289.6 157.3L287.9 159.4L285 160.3L283.2 162L281.8 162.2L280.4 163.2L280 164.2L276.9 166.1L275.4 167.5L274.1 169.2L273.6 171.2L274.1 173.2L275.1 175.7L276.3 177.7L276.3 179L277.6 182.3L277.5 184.3L277.4 185.4L276.7 187.2L275.9 187.5L274.5 187.2L274.1 185.9L273 185.3L271.6 182.8L270.3 180.6L269.8 179.4L270.4 177.5L269.6 175.9L267.5 173.5L266.4 173.1L263.6 174.4L263.1 174.2L261.7 172.9L260 172.2L256.9 172.5L254.4 172.2L252.3 172.4L251.1 172.8L251.6 173.6L251.6 174.8L252.2 175.4L251.6 175.8L250.6 175.3L249.6 175.9L247.6 175.8L245.5 174.3L243.1 174.6L241 174L239.3 174.2L237 174.8L234.4 177L231.7 178.2L230.2 179.6L229.5 180.9L229.5 182.9L229.6 184.3L230.2 185.3L230.2 185.3L230.2 185.3L229.1 187.8L228.6 189.9L228.4 193.7L228.1 195.2L228.6 196.7L229.5 198.1L230 200.4L231.9 202.5L232.5 204.2L233.6 205.6L236.6 206.4L237.7 207.6L240.1 206.8L242.3 206.5L244.3 206L246.1 205.5L247.9 204.3L248.5 202.6L248.7 200.2L249.2 199.3L251.1 198.6L254 197.9L256.5 198L258.2 197.8L258.9 198.4L258.8 199.8L257.3 201.5L256.6 203.2L257.1 203.7L256.7 205L256 207.2L255.3 206.5L254.7 206.6L254.7 207L255.3 207L255.2 207.8L254.8 209L255 209.5L254.7 210.5L254.9 210.8L254.6 212.2L254 213L253.5 213.1L253 214.1L253.9 214.6L254.1 214.2L254.9 214.6L255.2 214.7L255.8 214.2L256.6 214.1L256.9 214.4L257.3 214.2L258.6 214.5L259.9 214.4L260.8 214.1L261.1 213.8L262 213.9L262.7 214.1L263.4 214L263.9 213.8L265.2 214.2L265.6 214.3L266.5 214.8L267.3 215.4L268.3 215.9L269 216.7L268.8 217L268.7 217.6L268.9 218.7L268.3 219.6L268 220.8L267.9 222.1L268.1 222.8L268.1 224.1L267.7 224.4L267.4 225.6L267.6 226.4L267.1 227.1L267.2 227.9L267.6 228.4L268.3 230L269.4 231.1L270.7 232.4L271.7 233.4L271.6 234L272.8 234.1L273 233.9L273.8 234.6L275.1 234.4L276.3 233.7L278 233.1L279 232.2L280.5 232.4L280.4 232.7L281.9 232.8L283.2 233.3L284.1 234.2L285.1 235L286.6 235L288.7 233L289.8 232.7L289.8 231.8L290.3 229.3L291.9 228L293.7 227.9L293.9 227.3L296.1 227.6L298.3 226.1L299.3 225.5L300.7 224.1L301.7 224.2L302.4 225L301.9 226L301.8 226.7L300.1 227L301.1 228.3L301 229.8L299.8 231.5L300.8 233.8L302 233.6L302.7 231.5L301.8 230.5L301.7 228.3L305.1 227.1L304.7 225.8L305.7 224.9L306.7 226.9L308.7 226.9L310.5 228.6L310.6 229.5L313.1 229.5L316 229.2L317.6 230.5L319.8 230.9L321.3 230L321.3 229.3L324.8 229.1L328.1 229L325.8 229.9L326.7 231.3L328.9 231.5L331 232.9L331.5 235.2L332.9 235.1L334 235.8L335.8 236.9L337.5 238.8L337.6 240.3L338.7 240.3L340.2 241.7L341.3 242.7L344.6 243.3L344.9 242.8L347.1 242.6L350.1 243.4L351.1 243.7L353.1 244.4L356 246.8L356.5 248L357.5 247.9L358.1 249.5L359.7 254.5L361.2 255L361.3 257L359.2 259.4L360 260.2L364.9 260.7L365 263.6L367.2 261.7L370.6 262.7L375.3 264.5L376.6 266.2L376.2 267.8L379.4 266.9L384.8 268.4L388.9 268.3L393.1 270.7L396.6 273.9L398.7 274.8L401.1 274.9L402.1 275.8L403.1 279.5L403.5 281.2L402.4 286L401 287.9L397.1 291.9L395.3 295.2L393.3 297.7L392.6 297.7L391.8 299.8L392 305.3L391.2 309.7L390.9 311.6L390 312.8L389.6 316.6L386.7 320.4L386.3 323.4L384 324.6L383.4 326.4L380.3 326.4L376 327.5L374 328.7L370.9 329.6L367.6 331.9L365.3 334.8L364.9 336.9L365.3 338.5L364.8 341.4L364.2 342.8L362.3 344.4L359.2 349.5L356.7 351.8L354.8 353.2L353.6 355.9L351.7 357.6L350.5 359.4L347.4 361L345.4 360.4L343.8 360.7L341.3 359.5L339.4 359.6L337.7 358L337.5 359.5L341 361.9L340.7 363.9L342.4 365.2L342.3 366.6L339.6 370.3L335.5 371.9L329.9 372.5L326.8 372.2L327.4 373.9L326.9 376.1L327.4 377.5L325.7 378.5L322.9 378.9L320.2 377.9L319.1 378.6L319.5 381.5L321.4 382.4L322.9 381.5L323.7 383L321.2 383.9L318.9 385.7L318.5 388.6L317.9 390.1L315.3 390.1L313.1 391.6L312.3 393.8L315 395.9L317.7 396.5L316.7 399.1L313.4 400.7L311.6 404.1L309.1 405.2L308 406.6L308.8 409.6L310.7 411.2L309.5 411.1L307.1 411.1L305.7 411.8L303.2 412.8L302.8 415.5L301.6 415.6L298.5 414.6L295.3 412.6L291.8 411L290.9 409.2L291.7 407.5L290.3 405.5L290 400.6L291.2 397.8L294.1 395.6L289.9 394.8L292.5 392.2L293.5 387.4L296.6 388.4L298 382.4L296.1 381.7L295.3 385.3L293.5 384.9L294.4 380.7L295.3 375.4L296.6 373.4L295.8 370.6L295.6 367.3L296.8 367.2L298.5 362.6L300.4 358L301.6 353.7L300.9 349.3L301.8 346.9L301.4 343.4L303 339.9L303.5 334.3L304.4 328.3L305.3 321.8L305.1 317.1L304.5 313L301.7 311.3L301.5 310.2L296 307.3L291 304.1L288.9 302.3L287.7 299.9L288.2 299.1L285.8 295.3L283.1 290L280.5 284.2L279.3 282.9L278.4 280.8L276.3 278.9L274.3 277.7L275.2 276.4L273.9 273.7L274.7 271.7L276.9 269.8L278.4 267.7L277.8 266.4L276.8 267.8L275.1 266.5L275.7 265.7L275.2 263.1L276.2 262.6L276.7 260.8L277.7 259L277.5 257.8L279.1 257.2L281 256L280.6 255.1L281.6 254.9L281.5 253.5L282.1 252.4L283.5 252.2L284.7 250.4L285.8 248.9L284.7 248.2L285.3 246.5L284.6 243.9L285.2 243.1L284.8 240.7L283.7 239.1L282.7 238.3L282.1 236.7L282.8 236L282.1 235.8L281.6 234.8L280.2 234L279 234.2L278.4 235.2L277.3 235.9L276.7 236L276.4 236.6L277.8 238.2L277 238.6L276.6 239L275.3 239.1L274.8 237.4L274.5 237.9L273.6 237.7L273 236.6L271.9 236.4L271.1 236L269.9 236L269.9 236.7L269.5 236.2L268 235.6L267.5 235L267.8 234.5L267.7 233.9L266.9 233.2L265.8 232.6L264.9 232.2L264.7 231.4L264 230.9L264.1 231.7L263.6 232.4L262.9 231.6L262.1 231.3L261.7 230.7L261.7 229.8L262.1 228.9L261.3 228.5L261.9 228L261 227.1L259.7 225.9L259 224.9L257.9 224L256.5 222.7L256.8 222.3L257.2 222.7L257.5 222.5L257 221.6L256.1 221.3L255.8 222L254.2 222L253.2 221.7L252.1 221.1L250.5 220.9L249.7 220.3L248.3 219.8L246.6 219.8L245.3 219.2L243.8 218L240.7 214.9L239.2 213.9L237 213.2L235.4 213.4L233.2 214.5L231.8 214.8L229.8 214L227.7 213.5L225.1 212.1L223.1 211.7L219.9 210.4L217.6 209L216.9 208.2L215.3 208.1L212.5 207.2L211.3 205.8L208.4 204.2L207 202.4L206.3 201L207.2 200.7L206.9 199.9L207.6 199.1L207.6 198.1L206.7 196.8L206.4 195.7L205.5 194.2L203 191.3L200.2 189.1L198.9 187.3L196.5 186.1L196 185.4L196.4 183.6L195 182.9L193.4 181.5L192.7 179.5L191.2 179.3L189.6 177.8L188.3 176.4L188.1 175.5L186.6 173.3L185.7 171.1L185.7 170L183.7 168.8L182.8 168.9L181.2 168.1L180.7 169.3L181.2 170.7L181.5 172.9L182.4 174.1L184.5 176L184.9 176.7L185.4 176.9L185.7 177.9L186.2 177.9L186.8 179.7L187.6 180.5L188.2 181.5L190 183L190.9 185.7L191.7 186.9L192.5 188.3L192.6 189.8L194 189.9L195.1 191.2L196.1 192.5L196 193L194.9 194.1L194.4 194.1L193.6 192.3L191.8 190.7L189.8 189.3L188.4 188.5L188.5 186.4L188.1 184.9L186.7 184L184.8 182.7L184.5 183L183.8 182.3L182 181.6L180.4 179.9L180.6 179.7L181.8 179.9L182.8 178.8L182.9 177.5L180.7 175.4L179.1 174.6L178.1 172.8L177.1 170.9L175.8 168.6L174.6 166L174.2 164.5L172.4 162.9L171.1 162.5L170.8 161.7L169.2 161.6L168.2 160.8L165.6 160.5L164.9 160L164.6 158.4L161.9 155.5L159.6 151.5L159.7 150.8L158.5 149.9L156.3 147.5L155.9 145.1L154.5 143.5L155.1 141.1L155 138.7L154.1 136.5L155.2 133.7L155.8 128.5L155.3 124.6L154.5 122.1L153.7 120.8L154 120.2L158 121.2L159.5 123.9L160.2 123.2L159.7 120.8L158.8 118.4L158.4 118.4L153 115.6L151 114.4L146 113.2L144.5 110.6L144.9 108.8L141.3 107.6L140.8 105.3L137.5 103.2L137.4 101.7L135.9 100.6L133.4 99.7L132.6 97.2L129.1 94.8L127.6 92.1L124.9 91.9L120.5 91.8L117.2 91L111.5 88L108.8 87.5L104 86.4L100.1 86.7L94.7 85.3L91.4 84.1L88.3 84.7L88.8 86.7L87.3 86.9L84.1 87.5L81.6 88.5L78.6 89.1L78.2 87.4L79.4 84.6L82.4 83.7L81.6 83L78.1 84.6L76.2 86.5L72.2 88.5L74.2 89.9L71.6 92L68.6 93.2L65.8 94.1L65.1 95.4L60.8 96.9L59.9 98.2L56.7 99.5L54.8 99.3L52.2 100.1L49.3 101L47 102L42.3 102.8L41.8 102.3L44.9 101L47.6 100.1L50.5 98.5L54 98.2L55.4 97L59.2 95.3L59.8 94.7L61.9 93.7L62.4 91.5L63.8 89.8L60.6 90.7L59.7 90.2L58.2 91.2L56.4 89.8L55.6 90.8L54.6 89.4L51.8 90.5L50.1 90.5L49.9 88.8L50.4 87.7L48.6 86.7L45 87.2L42.6 85.9L40.7 85.2L40.7 83.6L38.6 82.3L39.6 80.7L41.9 79.1L42.9 77.6L45.1 77.4L47 77.8L49.3 76.4L51.3 76.7L53.4 75.8L52.9 74.5L51.3 73.9L53.4 72.8L51.7 72.9L48.7 73.5L47.9 74.1L45.7 73.5L41.8 73.8L37.7 73.1L36.5 72L33 70.3L36.9 69.1L43.1 67.7L45.4 67.7L45 69.1L50.9 69L48.6 67.2L45.2 66.1L43.3 64.7L40.6 63.4L36.8 62.5L38.3 61L43.3 60.9L46.8 59.6L47.4 58.2L50.3 56.8L53 56.5L58.2 55.2L60.8 55.4L65.1 53.9L69.3 54.5L71.3 55.8L72.5 55.2L77.2 55.4L77 56L81.3 56.5L84.1 56.2L90 57.2L95.3 57.4L97.4 57.8L101.1 57.3L105.4 58.2L108.4 58.6L113.6 59.3L117.9 60.7L120.8 61L123.3 59.8L126.6 58.9L130.8 59.2L134.9 57.9L139.5 57.2L141.4 58.4L143.4 57.7L144.1 56.4L146 56.7L150.7 59.3L154.4 57.3L154.8 59.5L158.2 59L159.2 58.2L162.6 58.4L166.8 59.6L173.3 60.6L177.2 61.1L179.9 60.9L183.6 62.4L179.7 63.8L184.7 64.5L192.2 64.1L194.6 63.6L197.6 65.3L200.6 63.9L197.7 62.7L199.5 61.7L202.9 61.5L205.1 61.2L207.4 61.9L210.2 63.5L213.3 63.3L218.2 64.6L222.5 64.1L226.5 64.2L226.2 62.4L228.7 61.9L233 62.9L233 65.6L234.8 63.3L237 63.4L238.2 60.5L235.3 58.7L232 57.5L232.2 54.3L235.5 52.2L239.2 52.7L242 54L245.8 57.2L243.3 58.6L248.5 59.2ZM182.9 48.8L181.5 50.1L187.7 49.2L191.5 50.7L194.7 49.2L197.2 50.2L199.5 53L200.9 51.8L198.9 48.9L201.3 48.4L204.1 48.9L207.2 50.1L209 52.9L209.8 54.9L214.5 56.3L219.5 57.7L219.2 59L214.6 59.2L216.4 60.3L215.5 61.4L210.4 60.9L205.7 60.1L202.4 60.3L197.2 61.3L189 61.8L185.2 62L183.7 60.6L179.9 59.9L177.5 60.2L174.1 57.9L175.9 57.6L180.2 57.1L184.1 57.2L187.7 56.7L182.4 56L176.4 56.3L172.5 56.2L171 55.2L177.5 54L173.2 54L168.3 53.3L170.7 51.1L172.6 50L180 48.2L182.9 48.8ZM287.9 48.8L288.2 49.6L285.2 49.5L282.2 49.5L279.2 49.9L278.4 49.7L275.3 48.2L275.5 47.1L276.8 46.9L283.2 47.2L287.9 48.8ZM259.6 48.7L261.7 50.5L264.3 48.1L271.3 46.9L276.1 49.9L275.7 51.8L281.2 51L283.8 49.8L290 51.3L293.8 52.7L294.2 53.9L299.3 53.3L302.2 55.1L308.9 56.3L311.3 57.4L314 60.1L308.9 61.5L315.4 63.4L319.8 64L323.8 66.7L328.2 66.8L327.3 68.9L322.5 72.2L319 71L314.7 68.2L311.1 68.6L310.7 70.2L313.6 71.9L317.4 73.2L318.6 74L320.4 76.9L319.4 78.9L315.9 78.2L308.9 75.8L312.9 78.3L315.8 80.1L316.2 81.1L308.7 79.9L302.7 78.3L299.3 76.9L300.3 76L296.2 74.5L292.1 73.2L292.2 74L284.1 74.4L281.8 73.5L283.6 71.3L288.8 71.3L294.6 70.9L293.6 69.9L294.6 68.4L298.2 65.6L297.4 64.3L296.4 63.4L292.1 62L286.5 61L288.3 60.2L285.3 58.4L282.9 58.3L280.7 57.3L279.2 58.2L274.2 58.5L264 57.9L258.2 57L253.7 56.6L251.4 55.6L254.3 54.3L250.3 54.2L249.4 51.3L251.6 48.7L254.4 47.6L261.6 46.8L259.6 48.7ZM221.2 46.7L224.5 47.3L229.5 46.9L230.2 47.8L227.6 49.1L231.8 50.4L231.3 53L226.8 54.1L224.1 53.9L222.2 52.8L215.3 50.5L215.3 49.6L221 50L217.9 48.1L221.2 46.7ZM898.9 48.5L894.7 48.5L889 48.2L888.5 48L891.1 46.9L894.6 46.6L898.6 47.7L898.9 48.5ZM241.1 49.8L238.1 51.9L235 51.8L233.2 49.3L233.3 47.8L234.7 46.6L237.5 45.8L243.3 45.9L248.6 46.6L244.4 49.2L241.1 49.8ZM165.4 53.7L158.1 55.2L156.6 53.9L150.2 52.4L151.1 51.4L153.3 49L155.7 47.1L153 45.4L162.4 44.9L166.4 45.5L173.5 45.7L176.2 46.5L179.1 47.7L175.6 48.5L168.8 50.5L165.4 52.5L165.4 53.7ZM918.7 43.1L915.5 44.2L911 44L905.9 42.8L906.5 41.9L911.7 42.3L918.7 43.1ZM240 43.4L238.5 44.5L234.4 44.3L231.1 43.5L232.5 42.2L236.5 41.5L239 42.5L240 43.4ZM903 41.7L900.8 43.9L890.6 43.8L886 44.5L880.5 42.6L882 40.6L885.6 40L893 40.2L903 41.7ZM226.4 38.4L228.5 39.7L228.6 41.2L227.3 43.3L222.8 43.6L219.8 43.2L219.8 41.5L215.3 41.7L215.1 39.5L218.1 39.6L222.3 38.6L226.2 38.7L226.4 38.4ZM199.4 39.9L200.5 40.9L203 40.4L205.9 40.5L206.4 41.9L204.7 43.3L195.3 43.8L188.3 45L184 45.1L183.7 44.1L189.5 42.9L176.9 43.2L173 42.7L176.8 39.9L179.4 39.1L187.3 40L192.2 41.7L197 42L193.1 39.2L195.6 38.2L198.5 38.5L199.4 39.9ZM659.8 55.7L658.2 55.9L649.1 55.6L648.4 54.3L643.3 53.5L642.9 52L645.8 51.3L645.7 49.8L651.2 47.3L648.6 46.9L655.3 44.4L654.5 43.1L660.7 41.6L669.9 39.7L679.2 39.2L683.9 38.1L689.3 37.7L691.3 38.9L689.4 39.8L679.5 41.2L671.1 42.6L662.4 45.3L658.3 48.2L653.9 50.9L654.5 53.3L659.8 55.7ZM237 37.3L240.1 38.2L245.5 38.2L247.9 39.1L247.3 40.2L250.5 40.9L252.3 41.6L256 41.7L260.1 41.9L264.5 41.3L270.1 41.1L274.6 41.3L277.6 42.4L278.2 43.6L276.5 44.3L272.4 44.9L268.8 44.6L260.8 45L255.1 45.1L250.7 44.7L243.3 43.8L242.3 42.2L242 40.8L239.2 39.5L233.4 39.2L230.2 38.3L231.3 37.1L237 37.3ZM177.2 35.7L176.8 37.9L174.7 38.9L172.1 39.1L166.9 40.3L162.5 40.7L158.7 40.1L163.5 37.9L169.2 36.1L173.4 36.1L177.2 35.7ZM193.9 35.5L188.7 36.4L184.6 35.4L186.9 34.5L190.9 34.2L194.9 34.7L193.9 35.5ZM568.7 35.1L562.5 36.3L557.6 35.6L559.5 34.9L557.8 33.9L563.6 33.4L564.7 34.4L568.7 35.1ZM233.8 34.5L229.7 35.1L227.4 34.4L226.2 33.3L226 32.1L229.6 32.3L231.2 32.5L234.6 33.5L233.8 34.5ZM222.1 33.7L223.1 34.9L218.6 34.6L214 33.7L207.8 33.6L210.5 32.7L207.2 32L207 30.9L212.4 31.3L219.9 32.4L222.1 33.7ZM791.9 33.8L776.2 34.9L781.3 31.1L783.6 30.8L785.7 31L792.7 32.6L791.9 33.8ZM550.7 29.8L559.8 31.9L552.9 33L551.3 35.2L548.9 35.7L547.6 38.1L544.2 38.2L538.2 36.5L540.7 35.4L536.6 34.6L531.2 32.2L529 29.9L536.6 28.9L538.1 29.9L542.1 29.8L543.1 28.8L547.2 28.7L550.7 29.8ZM570.7 27.7L576.1 28.7L572 30.3L564 30.6L555.8 30.1L555.3 29.3L551.3 29.3L548.2 28L556.8 27.2L560.9 27.9L563.7 27L570.7 27.7ZM642 27.3L638.3 27.7L635.8 27.9L635.4 28.4L632.2 28.9L629.2 28.2L630.8 27.3L624.6 27.2L630 26.7L634.2 26.6L634.8 27.4L636.4 26.7L639 26.2L643.1 26.9L642 27.3ZM777.6 32.1L771.5 32.5L763.8 31.6L759.2 30.5L757.1 28.5L753.3 27.9L760.5 25.9L766.5 25.3L771.9 26.7L778.3 29.5L777.6 32.1ZM258.3 29.9L261.6 30.8L257.8 31.7L252.7 33.8L247.8 34L242 33.7L239 32.5L239.1 31.4L241.3 30.7L236.2 30.7L233.1 29.7L231.4 28.4L233.3 27.2L235.2 26.3L238.1 26.1L236.8 25.4L243.3 25.3L246.9 26.8L251.5 27.4L256.1 28L258.3 29.9ZM309.7 19.9L317.1 20.1L323.1 20.5L328.2 21.3L328.1 22.1L321.3 23.3L314.6 23.9L312.1 24.6L318.1 24.5L311.6 26.3L307 27.1L302.3 29.5L296.5 29.9L294.8 30.5L286.4 30.8L290.2 31.2L288.3 31.7L290.6 33.1L287.9 34.1L283.6 35L282.3 36.1L278.4 36.9L278.8 37.6L283.6 37.5L283.6 38.2L276.2 39.9L269 39.1L260.8 39.6L256.7 39.2L251.4 39.1L251.1 37.7L256.2 37L254.8 35L256.5 34.8L264 36L260.2 34.1L255.7 33.6L257.9 32.5L262.8 31.8L263.6 30.8L259.7 29.6L258.5 28.2L266.1 28.3L268.3 28.6L272.6 27.5L266.4 27.2L256.7 27.4L251.8 26.4L249.4 25.2L246.2 24.4L245.6 23.4L249.7 22.9L253 22.8L258.4 22.3L262.5 21.2L265.9 21.4L268.9 22.2L271.1 20.6L274.7 20.2L279.7 19.8L288.2 19.7L289.7 20L297.7 19.5L303.7 19.7L309.7 19.9ZM424.7 18.7L442.1 21L437 22.1L426.3 22.3L411.4 22.5L412.8 23L422.6 22.7L431 23.7L436.4 22.8L438.7 23.9L435.6 25.6L442.7 24.5L456.2 23.4L464.5 23.9L466.1 25.2L454.8 27.2L453.2 27.9L444.3 28.4L450.7 28.5L447.5 30.6L445.3 32.5L445.4 35.7L448.7 37.6L444.3 37.7L439.8 38.6L444.9 40.2L445.6 42.6L442.6 42.9L446.2 45.4L440 45.6L443.2 46.8L442.3 47.8L438.4 48.2L434.5 48.2L438 50.2L438.1 51.5L432.6 50.3L431.1 51L434.9 51.8L438.5 53.5L439.6 55.9L434.6 56.4L432.5 55.3L429 53.6L430 55.6L426.8 57.1L434.1 57.2L437.9 57.4L430.5 59.9L422.9 62.2L414.8 63.2L411.7 63.2L408.9 64.3L405 67.4L399 69.4L397.1 69.5L393.4 70.2L389.4 70.9L387 72.7L387 74.7L385.6 76.6L381.1 78.9L382.2 81.2L380.9 83.6L379.5 86.4L375.6 86.6L371.5 84.2L365.9 84.2L363.2 82.6L361.4 79.8L356.6 76.2L355.2 74.3L354.8 71.7L350.9 69L351.9 66.9L350.1 65.9L352.8 62.5L357 61.4L358.1 60.2L358.7 58L355.5 59L354 59.4L351.5 59.8L348.1 58.9L347.9 56.9L349 55.4L351.6 55.4L357.3 56.1L352.5 54.3L350 53.3L347.2 53.7L344.9 53L348 50.3L346.3 49.2L344.1 47.2L340.8 44.2L337.2 43L337.3 41.8L329.8 40.1L323.9 39.9L316.5 40.1L309.7 40.3L306.5 39.3L301.7 37.5L309 36.6L314.5 36.5L302.7 35.7L296.4 34.5L296.8 33.4L307.3 32L317.5 30.6L318.5 29.6L311 28.5L313.5 27.4L323.1 25.4L327.1 25.1L326 23.8L332.6 23L341.1 22.6L349.6 22.5L352.7 23.4L360 21.8L366.7 22.9L370.6 23.2L376.3 24.1L369.7 22.5L370.1 21.3L379.4 19.6L389.2 19.7L392.7 18.6L402.5 18.4L424.7 18.7Z" fill="#E6ECF5" fill-opacity="0.082"/>
  <path d="M311.8 415.6L315.4 417.3L319.3 418L318.1 419.5L315.4 419.6L314 418.6L313.1 419.8L310.7 420.7L307.7 420.3L305.7 419.5L302.8 419L299.3 417.4L296.4 415.9L292.6 412.6L294.9 413.2L298.8 415.2L302.5 416.2L303.9 414.9L304.8 412.9L307.4 411.7L309.4 412.1L310.4 413.4L311.8 415.6ZM337.4 407.6L339.6 408.9L338.8 409.9L335 410.8L333.8 409.8L331.4 411.1L330 409.8L333.3 408.1L335.7 408.8L337.4 407.6ZM695.2 403.6L691 403.8L690.9 402.3L691.3 401.1L691.5 400.5L693.3 401.4L695.9 401.7L696 402.3L695.2 403.6ZM903.9 377.8L906.6 378.8L908.1 378.4L910.2 377.9L911.9 378.1L912.1 381.5L911.2 382.5L910.9 384.8L909.9 384L908 386.1L907.4 385.9L905.7 385.8L904 383.3L903.6 381.4L902 378.9L902.1 377.6L903.9 377.8ZM980.6 378.2L981.2 379.4L983.2 378.2L984 379.5L984 380.7L983 382L981.2 384.1L979.7 385.3L980.8 386.7L978.6 386.7L976.3 387.8L975.5 389.7L973.9 392.6L971.7 393.9L970.4 394.7L967.8 394.7L966 393.7L963 393.5L962.5 392.5L964 390.3L967.5 387.5L969.3 386.9L971.3 385.8L973.7 384.3L975.3 382.8L976.6 380.7L977.6 379.9L978 378.3L980 377L980.6 378.2ZM985 364.5L987 367.5L987.1 365.5L988.4 366.3L988.8 368.5L991 369.4L992.9 369.7L994.5 368.6L995.9 368.9L995.2 371.5L994.4 373.1L992.2 373.1L991.5 374L991.8 375.2L991.3 375.7L990.3 377.3L988.9 379.3L986.8 380.4L986.3 379.7L985.1 379.3L986.7 376.9L985.8 375.3L982.8 374.1L982.9 373.1L984.9 372.1L985.4 369.9L985.3 368L984.1 366.1L984.2 365.5L982.9 364.4L980.7 361.8L979.5 359.8L980.6 359.5L982.1 361.1L984.2 361.9L985 364.5ZM964.2 324L963.2 324.7L961.6 323.9L959.6 322.6L957.9 321.1L956 319.1L955.6 318.1L956.8 318.1L958.4 319.1L959.6 320.1L960.5 320.9L962.8 322.7L964.2 324ZM0 307.8M998.2 308.5L996.5 309.1L996.1 308.1L997.5 307.5L998.4 307.3M0 306.4L0.6 306.3L0.2 307.7L0 307.8ZM639 299.2L639.5 302.6L640.2 304L639.9 305.4L639.4 306.2L638.5 304.5L638 305.4L638.5 307.5L638.3 308.7L637.5 309.4L637.3 311.9L636.2 315.2L634.9 319.2L633.1 324.7L632.1 328.7L630.8 332.1L628.6 332.7L626.1 334L624.5 333.2L622.3 332.2L621.6 330.7L621.4 328.1L620.4 325.8L620.1 323.7L620.6 321.6L621.9 321.1L621.9 320.2L623.3 318L623.5 316.1L622.9 314.8L622.3 313L622.1 310.3L623.1 308.7L623.5 306.8L624.8 306.7L626.4 306.1L627.4 305.6L628.6 305.6L630.2 303.9L632.5 302.2L633.3 300.7L633 299.5L634.1 299.8L635.7 297.8L635.7 296.1L636.7 294.8L637.6 296L638.4 297.3L639 299.2ZM898.8 299.8L899.8 302L901.6 300.9L902.5 302.2L903.8 303.3L903.5 304.6L904.1 307L904.5 308.5L905.2 308.8L906 311.3L905.7 312.8L906.6 314.8L909.6 316.3L911.6 317.7L913.5 318.9L913.1 319.6L914.7 321.4L915.8 324.5L916.9 323.9L918 325.2L918.7 324.7L919.2 327.8L921.1 329.6L922.4 330.7L924.6 333L925.4 335.3L925.4 337L925.3 338.8L926.6 341.2L926.4 343.8L925.9 345.1L925.2 347.7L925.2 349.3L924.7 351.4L923.5 354L921.4 355.5L920.4 357.7L919.5 359.1L918.6 361.6L917.6 363.1L916.9 365.2L916.5 367.2L916.7 368.1L915.1 369.1L912 369.2L909.4 370.4L908.1 371.5L906.4 372.8L904.1 371.5L902.4 371L902.9 369.5L901.3 370L898.9 372.1L896.5 371.3L894.9 370.9L893.3 370.7L890.7 369.8L888.9 368.1L888.3 365.9L887.7 364.4L886.3 363.2L883.7 362.9L884.6 361.5L883.9 359.3L882.5 361.3L880.1 361.9L881.5 360.3L882 358.6L883 357.2L882.8 355L880.5 357.5L878.8 358.5L877.7 360.8L875.6 359.6L875.7 358.1L873.9 356L872.5 354.9L873 354.2L869.4 352.5L867.5 352.4L864.8 351L859.8 351.3L856.2 352.3L853.1 353.3L850.4 353.1L847.5 354.5L845.1 355.2L844.5 356.7L843.5 357.9L841.1 358L839.4 358.2L836.9 357.7L834.9 358L833 358.2L831.4 359.7L830.6 359.6L829.2 360.4L827.8 361.3L825.8 361.2L824 361.2L821 359.3L819.5 358.8L819.6 357.1L821 356.7L821.4 356.1L821.3 355L821.7 353L821.4 351.3L819.9 348.4L819.4 346.8L819.6 345.1L818.4 343.2L818.4 342.4L817.1 341.2L816.8 339L815.2 336.7L814.8 335.4L816 336.7L815.1 334L816.5 334.9L817.3 336L817.3 334.5L815.9 332.2L815.6 331.3L815 330.4L815.3 328.8L815.8 328.1L816.2 326.6L815.9 324.9L817.1 322.8L817.3 325L818.5 323.1L820.7 322.1L822.1 320.9L824.2 319.8L825.5 319.6L826.2 319.9L828.4 318.9L830.1 318.5L830.5 317.9L831.3 317.6L832.8 317.7L835.7 316.9L837.2 315.6L837.9 314L839.6 312.6L839.7 311.4L839.8 309.8L841.7 307.4L842.9 309.9L844.1 309.3L843.1 307.9L843.9 306.5L845.2 307.2L845.5 305L847 303.6L847.7 302.4L849.1 301.9L849.1 301.1L850.3 301.4L850.4 300.7L851.6 300.3L853 299.9L855 301.2L856.6 303L858.3 303L860.1 303.2L859.5 301.7L860.8 299.3L862.1 298.6L861.6 297.9L862.8 296.2L864.5 295.2L865.9 295.5L868.3 295L868.2 293.5L866.2 292.6L867.7 292.1L869.5 292.9L871 294L873.3 294.8L874.1 294.5L875.8 295.4L877.4 294.6L878.5 294.8L879.1 294.3L880.4 295.7L879.7 297.2L878.6 298.4L877.7 298.5L878 299.6L877.2 301.1L876.2 302.5L876.4 303.3L878.6 304.9L880.7 305.8L882.2 306.8L884.2 308.6L885 308.6L886.4 309.3L886.8 310.2L889.5 311.2L891.3 310.2L891.9 308.6L892.4 307.3L892.8 305.8L893.6 303.5L893.2 302.1L893.4 301.2L893.1 299.6L893.5 297.4L894 296.8L893.6 295.8L894.2 294.3L894.8 292.7L894.8 291.9L895.9 290.8L896.7 292.2L896.8 294L897.5 294.4L897.7 295.6L898.7 297.1L898.9 298.7L898.8 299.8ZM845.7 289.3L843.3 289.9L842.9 289.6L843.2 288.6L844.4 286.8L847.1 285.7L847.5 285L849.8 284.4L851.8 284.3L852.7 283.9L853.7 284.3L852.7 285L849.8 286.3L847.5 287.1L845.7 289.3ZM841.4 283.4L841 285L836.8 285.8L833.1 285.5L833.1 284.4L835.3 283.8L837.1 284.7L838.9 284.4L841.4 283.4ZM801.7 279.6L807.1 279.9L807.7 278.7L812.8 280.1L813.8 281.9L818 282.5L821.4 284.2L818.2 285.3L815.2 284.1L812.7 284.2L809.8 284L807.2 283.5L804 282.4L801.9 282.1L800.8 282.4L795.7 281.2L795.2 280L792.7 279.8L794.6 277L798 277.2L800.2 278.3L801.3 278.6L801.7 279.6ZM922.2 275.8L920.7 276.1L920.3 276.9L918.8 277.6L917.3 278.3L915.9 278.2L913.6 277.4L912 276.6L912.2 275.7L914.7 276.1L916.2 275.9L916.7 274.5L917.1 274.4L917.3 276L918.9 275.8L919.7 274.8L921.2 273.7L920.9 272L922.6 272L923.2 272.5L923.1 274.1L922.2 275.8ZM862.4 268.9L863.4 271.1L861.1 270L858.8 269.7L857.2 269.9L855.3 269.8L855.9 268.2L859.4 268.1L862.4 268.9ZM872.6 263.3L873.4 268L876.3 269.7L878.6 266.7L881.8 264.9L884.2 264.9L886.6 265.9L888.7 267L891.7 267.5L896.5 269.5L901.6 271.2L903.5 272.6L905.1 274.1L905.5 275.8L910.1 277.6L910.8 279.1L908.2 279.4L908.9 281.3L911.3 283.2L913.1 286.3L914.7 286.2L914.6 287.5L916.8 288L915.9 288.5L918.9 289.7L918.6 290.6L916.7 290.8L916.1 290L913.7 289.7L910.9 289.3L908.7 287.4L907.1 285.8L905.7 283.3L902.1 282L899.7 282.9L898 283.8L898.4 286L896.2 286.9L894.6 286.5L891.8 286.3L889.3 284L886.5 283.4L885.8 284.2L882.3 284.3L883.4 281.9L885.2 281.1L884.5 278L883.1 275.6L877.7 273.1L875.5 272.9L871.3 270.2L870.5 271.6L869.4 271.9L868.8 270.8L868.8 269.6L866.6 268.1L869.6 267.1L871.6 267.2L871.4 266.4L867.3 266.4L866.2 264.7L863.7 264.1L862.6 262.7L866.3 262L867.7 261.1L872.2 262.3L872.6 263.3ZM847.9 255.9L845.7 258.8L843.6 259.3L840.9 258.8L836.3 258.9L833.8 259.3L833.4 261.5L835.9 264.1L837.4 262.8L842.6 261.8L842.4 263.1L841.2 262.7L840 264.4L837.5 265.5L840.1 269.2L839.6 270.2L842.1 273.5L842.1 275.4L840.6 276.3L839.5 275.3L840.9 272.9L838.2 274L837.5 273.2L837.8 272.1L835.8 270.4L836 267.6L834.2 268.5L834.4 271.8L834.5 276L832.8 276.4L831.6 275.5L832.4 272.9L831.9 270.1L830.8 270.1L829.9 268.1L831.1 266.2L831.5 263.9L832.8 259.6L833.4 258.4L835.8 256.2L838 257.1L841.5 257.5L844.7 257.3L847.4 255.3L847.9 255.9ZM857.5 256.7L857.3 259.3L855.9 259L855.5 260.7L856.6 262.3L855.8 262.6L854.7 260.8L853.9 257.1L854.4 254.8L855.4 253.7L855.6 255.3L857.2 255.5L857.5 256.7ZM793.9 276.9L790.9 277L788.5 274.5L785 272.2L783.8 270.4L781.7 268.1L780.3 265.9L778.2 261.9L775.7 259.5L774.9 257L773.9 254.7L771.4 252.9L769.9 250.4L767.8 248.8L764.9 245.6L764.7 244.2L766.5 244.3L770.8 244.8L773.2 247.7L775.4 249.6L776.9 250.8L779.6 253.9L782.4 254L784.7 256L786.3 258.4L788.4 259.7L787.3 262.1L788.9 263.1L789.9 263.1L790.4 265.1L791.4 266.8L793.4 267L794.7 268.8L794 272.4L793.9 276.9ZM827.4 254.7L830.5 257.4L827.3 257.7L826.3 259.7L826.4 262.3L823.8 264.3L823.7 267.2L822.6 271.6L822.2 270.6L819.1 271.9L818 270.1L816 269.9L814.6 269L811.3 270L810.3 268.7L808.5 268.8L806.2 268.5L805.7 264.6L804.4 263.8L803 261.3L802.6 258.8L803 256.1L804.6 254.2L806.7 255.2L808.8 254.7L809.4 252.2L810.5 251.7L813.9 251L815.9 248.8L817.2 246.9L818.3 245.8L820.7 244.3L822.8 242.3L824.2 240L825.4 240L826.8 241.4L826.9 242.7L828.7 243.5L831.1 244.4L830.9 245.5L829 245.7L829.5 247.1L827.4 248L825.9 250.7L827.9 253.4L827.4 254.7ZM851 235.7L851.3 237.6L851.5 239.2L850.5 241.9L849.5 238.9L848.2 240.4L849.1 242.5L848.3 243.9L845.1 242.2L844.3 240.1L845.1 238.7L843.4 237.4L842.5 238.6L841.2 238.5L839.1 240.1L838.7 239.2L839.8 236.8L841.5 236L843 234.9L844 236.2L846.1 235.4L846.6 234.1L848.5 234L848.4 231.8L850.6 233.2L850.8 234.6L851 235.7ZM725.6 242.1L723.2 242.8L721.9 240.5L721.4 236.3L722.6 231.6L724.6 233.2L725.8 235.3L727.2 238.3L726.8 241.3L725.6 242.1ZM844.4 230.3L843.4 231.3L842.5 233.1L841.7 233.9L839.9 231.9L840.5 231.2L841.2 230.4L841.5 228.6L843 228.4L842.6 230.3L844.7 227.6L844.4 230.3ZM848.6 224.9L849.4 228.1L847.3 227.3L847.3 228.3L848 230.1L846.7 230.7L846.6 228.7L845.7 228.5L845.3 226.8L846.9 227L846.9 225.9L845.2 223.7L847.8 223.8L848.6 224.9ZM837 206.5L838.7 207.4L839.6 206.6L839.8 207.4L839.4 208.5L840.3 210.6L839.6 213L837.9 214L837.5 216.3L838.1 218.6L839.6 218.9L840.8 218.6L844.3 220.2L844 221.8L844.9 222.5L844.7 223.8L842.5 222.4L841.5 220.8L840.8 221.9L839 220.2L836.5 220.6L835.1 220L835.2 218.8L836.1 218L835.3 217.4L834.9 218.4L833.5 216.7L833.1 215.5L833 212.7L834.1 213.7L834.4 209.2L835.3 206.5L837 206.5ZM298.4 202.6L300.8 203L301.1 202.6L303.3 202.6L305 203.3L305.7 203.2L306.2 204.3L307.7 204.2L307.6 205.1L308.9 205.2L310.2 206.2L309.2 207.4L307.9 206.8L306.6 206.9L305.7 206.8L305.2 207.3L304.1 207.5L303.7 206.8L302.8 207.2L301.7 209.2L301 208.7L300.8 207.9L299 207.4L297.7 207.6L296 207.4L294.7 207.9L293.2 207L293.4 206.1L296 206.5L298.1 206.7L299.1 206.1L297.8 204.8L297.8 203.7L296.1 203.3L296.7 202.5L298.4 202.6ZM806.5 206L804.1 207.4L801.8 206.5L801.7 204L803.1 202.7L806.1 201.9L807.7 202L808.4 203.1L807.1 204.4L806.5 206ZM278.7 194.2L279.8 195.3L282.4 195L283.4 195.6L285.7 197.4L287.4 198.7L288.4 198.7L290 199.3L289.8 200.1L291.9 200.2L294 201.4L293.6 202.1L291.8 202.4L289.9 202.6L288 202.4L284 202.6L285.9 201L284.7 200.3L283 200.1L282 199.2L281.3 197.6L279.8 197.7L277.2 196.9L276.3 196.3L272.7 195.9L271.8 195.3L272.8 194.6L270.1 194.5L268.1 196L266.9 196L266.5 196.7L265.1 197L264 196.7L265.4 195.9L266 194.8L267.3 194.2L268.7 193.6L270.8 193.3L271.5 193L273.9 193.2L276.1 193.3L278.7 194.2ZM836.6 194.2L835.4 196.5L833.9 194.1L833.6 191.9L835.3 189.1L837.5 186.9L838.8 187.8L838.3 189.5L836.6 194.2ZM874 161.3L874.3 162.3L872.8 164.1L871.6 163.2L870.2 163.8L869.5 165.5L867.7 164.7L867.7 163.3L869.2 161.6L870.8 161.9L872 160.7L874 161.3ZM543.1 149.6L542.1 151.8L542.5 152.7L541.9 154.2L539.8 153.1L538.4 152.8L534.5 151.3L534.9 149.9L538.2 150.1L541 149.8L543.1 149.6ZM525.6 141L527.2 143L526.9 146.8L525.6 146.6L524.5 147.6L523.4 146.8L523.3 143.4L522.7 141.7L524.2 141.8L525.6 141ZM891.6 152.7L890.6 155L891 156.5L889.6 158.5L886 159.8L881.2 160L877.2 163.3L875.3 162.2L875.2 160.1L870.4 160.7L867.1 162.1L863.8 162.1L866.7 164.2L864.8 169.1L863 170.4L861.7 169.2L862.4 166.6L860.6 165.8L859.5 163.8L862.1 162.9L863.5 161.1L866.3 159.6L868.4 157.6L873.9 156.8L876.9 157.4L879.8 152.2L881.6 153.6L885.7 150.7L887.3 149.6L889 146.1L888.6 142.8L889.7 141L892.7 140.5L894.2 144.5L894.1 146.8L891.6 149.7L891.6 152.7ZM899.7 132.4L901.7 133L903.7 131.8L904.3 135L900.2 135.8L897.7 138.7L893.4 136.7L891.8 139.9L888.8 139.9L888.4 137L889.8 134.8L892.7 134.7L893.5 130.7L894.4 128.4L897.6 131.4L899.7 132.4ZM156.9 119.9L155.5 120.3L151 118.9L150.1 117.9L147.6 116.9L147.1 116.1L144.3 115.6L143.2 114L143.5 113.3L146.4 114L148.1 114.4L150.7 114.7L151.6 115.7L153 117.1L155.8 118.3L156.9 119.9ZM344.1 113.6L342.2 116.1L344 115.1L345.9 115.7L344.9 116.7L347.4 117.5L348.7 116.8L351.5 117.7L350.6 119.8L352.5 119.3L352.9 120.9L353.8 122.7L352.6 125.2L351.3 125.3L349.5 124.8L350.1 122.4L349.3 122L346.1 124.6L344.5 124.5L346.4 123.1L343.7 122.4L340.8 122.6L335.4 122.5L334.9 121.6L336.7 120.6L335.5 119.8L337.8 118.1L340.7 113.5L342.4 111.8L344.8 110.8L346.1 111L345.6 111.8L344.1 113.6ZM131.4 103.9L134 103.7L133.2 106.9L135.6 109.3L134.5 109.3L132.8 107.9L131.8 106.6L130.4 105.7L129.9 104.4L130.1 103.5L131.4 103.9ZM899 113.4L901.8 118.5L897.7 117.6L896 121.7L898.7 124.7L898.6 126.7L896.5 125L894.7 127.2L894.2 124.8L894.5 122L894.2 118.8L894.8 116.7L894.9 112.8L893.3 110L893.6 106L896.1 104.7L895 103.3L896.3 102.9L897 104.9L897.9 107.6L897.9 110.5L899 113.4ZM481.1 109L476.2 110.7L472.3 110.3L474.5 107.3L473.1 104.3L476.9 102.1L479 100.7L481.3 100.6L484.3 102.4L482.8 104.4L483.2 106.4L481.1 109ZM535.2 99.4L533.6 101.7L530.7 100.1L530.3 98.9L534.4 97.9L535.2 99.4ZM75 95L72.2 96.1L70.8 95.4L70.4 94L72.9 93L74.4 92.5L76.2 92.7L77.4 93.6L75 95ZM491.7 90.6L488.7 93.7L491.5 93.3L494.6 93.4L493.8 95.7L491.3 98.3L494.2 98.5L496.9 102.2L498.8 102.7L500.5 106L501.3 107.1L504.7 107.6L504.3 109.5L502.9 110.3L504 111.8L501.5 113.3L497.8 113.3L493.1 114.1L491.8 113.5L490 114.9L487.4 114.6L485.4 115.7L484 115.1L488 112.1L490.5 111.4L486.2 111L485.4 109.8L488.3 108.9L486.8 107.3L487.3 105.5L491.4 105.7L491.8 104L489.9 102.2L486.5 101.7L485.9 100.9L486.9 99.6L486 98.8L484.5 100.2L484.3 97.4L482.9 96L483.9 93L486.1 90.6L488.3 90.9L491.7 90.6ZM263.4 70.3L264 71.6L265.4 71.1L267 71.9L270 72.9L273.2 73.8L273.5 75.2L275.5 74.9L277.5 75.9L275 76.8L270.7 76.1L269.1 74.8L266.4 76.4L262.4 77.9L261.5 76.2L257.7 76.4L260.1 75L260.5 72.7L261.4 70.1L263.4 70.3ZM459.7 68L459.1 69.9L462.2 71.9L458.6 74.1L450.6 76L448.2 76.6L444.5 76.1L436.8 75.2L439.5 73.9L433.5 72.5L438.4 72L438.3 71.1L432.4 70.5L434.3 68.6L438.5 68.1L442.8 70.1L447.1 68.5L450.6 69.4L455.1 67.8L459.7 68ZM289.3 66L286.1 66.2L285.5 64.7L286.6 63.1L289.2 62.7L291.4 63.5L291.4 64.8L291.1 65.2L289.3 66ZM0 60.8L6.8 63L14.1 65.9L13.9 67.6L15.7 68.4L15.1 66.3L22.6 66.7L28.1 69.4L25.3 70.7L20.8 71L20.7 73.8L19.6 74.4L17 74.3L14.9 73.3L11.2 72.4L10.5 71.2L7.7 70.7L4.6 71.1L3.1 70.1L3.7 69L0.3 69.7L1.6 71.1L0 72.3M1000 72.3L996.4 73.6L992.8 73.4L995.3 74.9L997 77.3L998.2 78.1L998.6 79.2L997.9 80L992.7 79.4L984.9 81.6L982.4 81.9L978.2 83.9L974.2 85.7L973.1 87L969.2 85L961.9 87.3L960.7 86.2L958 87.4L954.3 87L953.4 88.9L950 91.7L950.1 92.9L953.3 93.6L952.9 97.8L950.4 97.9L949.2 100.3L950.3 101.5L945.5 103L944.5 106.3L940.4 107L939.5 109.9L935.5 112.6L934.5 110.6L933.3 106.4L931.8 100L933.1 96L935.4 94.3L935.6 92.9L939.9 92.3L944.9 88.6L949.6 85.7L954.6 83.4L956.9 79.3L953.5 79.5L951.8 81.9L944.8 85.1L942.5 81.5L935.3 82.5L928.4 87.4L930.7 89.1L924.5 89.9L920.2 90.2L920.4 88.1L916.1 87.7L912.6 89.1L904.1 88.6L895 89.4L886 95.1L875.3 101.9L879.7 102.3L881.1 104.1L883.8 104.7L885.6 103.3L888.6 103.5L892.6 106.6L892.7 109.1L890.5 112L890.3 115.4L889.1 120L884.9 124.2L883.9 126.2L880.2 129.6L876.4 132.9L874.6 134.6L870.9 136.3L869.2 136.4L867.4 135L863.7 137.1L863.3 138L862.2 137.9L861 138.8L860.2 139.8L860.3 141.9L858.9 142.5L858.4 143L857.3 143.9L855.5 144.4L854.3 145.1L854.2 146.4L853.8 146.7L855 147.2L856.5 148.5L858.9 151.9L859.6 153.7L859.6 157.1L858.6 158.7L856.1 159.2L853.8 160.4L851.3 160.7L851 159.1L851.6 156.9L850.3 153.9L852.4 153.4L850.5 150.9L849.1 150.4L848.8 150.9L848 151.2L847.9 150.6L847.2 150.4L846.4 149.9L847.2 148.6L847.8 148.3L847.6 147.8L848.3 146.2L848.1 145.7L846.5 145.4L845.2 144.7L841.3 145.5L839.3 146.8L836.3 147.6L837.7 146.3L837.2 145.2L839.4 143.2L837.9 141.7L835.5 142.7L832.3 144.7L830.6 146.6L827.9 146.7L826.5 148.1L827.9 150L830.2 150.5L830.3 151.8L832.5 152.7L835.6 150.6L838.1 151.7L839.9 151.8L840.3 153.3L836.4 154.1L835.1 155.7L832.4 157.1L831 159.2L834 160.7L835.1 163.6L836.7 166.2L838.6 168.4L838.6 170.6L836.8 171.4L837.5 172.9L839.1 173.8L838.7 176.2L838 178.5L836.5 178.7L834.4 181.8L832.2 185.6L829.6 189.1L825.8 191.7L821.9 194.2L818.8 194.5L817.1 195.8L816.1 194.9L814.6 196.3L810.7 197.7L807.7 198.2L806.8 201.2L805.2 201.4L804.5 199.3L805.2 198.2L801.4 197.3L800.1 197.7L796.4 200.2L794.1 202.9L793.5 204.9L795.6 208L798.2 211.8L800.7 213.5L802.4 215.9L803.7 221.2L803.3 226.3L801 228.2L797.8 230.1L795.6 232.5L792.1 235.2L791.1 233.3L791.9 231.3L789.8 229.7L787.5 229.3L786.4 227.8L785 224.8L782.5 223.5L780.1 223.5L780.5 221.3L778 221.3L777.8 224.4L776.3 228.7L775.4 231.2L775.6 233.3L777.4 233.4L778.6 236L779.1 238.5L780.6 240.2L782.3 240.5L783.7 242L784.4 242.3L786 244L787.2 246L787.3 247.9L787 249.2L787.3 250.2L787.5 251.9L788.5 252.7L789.6 255.3L789.5 256.3L787.6 256.5L784.9 254.3L781.6 252L781.3 250.6L779.7 248.6L779.3 246.2L778.3 244.7L778.6 242.5L778 241.3L776.9 240.2L776.4 238.8L775 237.2L773.6 235.8L773.2 237.5L772.6 235.9L772.9 234.1L773.8 231.3L773.5 229.2L774.3 226.9L773.4 225.2L773.6 222.1L772.5 220.6L771.6 217.1L771.1 213.5L769.9 211.1L768.1 212.5L764.9 214.6L763.4 214.3L761.6 213.7L762.6 210.1L762 207.4L759.8 204.1L760.2 203L758.5 202.6L756.6 200.3L755.8 198.8L755.6 197.3L755.1 195.9L753.9 194.2L751.4 194.1L751.6 195.3L750.8 196.9L749.6 196.3L749.2 196.9L748.4 196.5L747.3 196.3L746.9 197.3L745 197.3L741.6 197.9L741.8 200.1L740.3 201.8L736.3 203.7L733.2 207.1L731.1 209L728.3 210.8L728.3 212.2L726.9 212.9L724.4 213.9L723.1 214.1L722.3 216.3L722.9 220L723 222.4L721.8 225.2L721.8 230.1L720.4 230.2L719.1 232.4L720 233.4L717.4 234.2L716.5 236.2L715.4 237L712.8 234.3L711.5 230.2L710.4 227.3L709.4 226L708 223.2L707.3 219.6L706.8 217.8L704.3 213.8L703.1 208.2L702.3 204.5L702.3 201L701.7 198.3L697.7 200L695.7 199.7L692.1 196.2L693.5 195.1L692.6 194L689.4 191.6L687.3 190.8L686.5 188.7L684.4 186.6L679.2 187.1L674.7 187.1L670.8 187.6L665.6 186.7L662.6 186L659.4 185.6L658.3 182.1L656.9 181.6L654.8 182.1L652 183.5L648.6 182.5L645.8 180.3L643.1 179.5L641.3 176.8L639.2 172.9L637.7 173.4L635.9 172.4L634.9 173.5L633.3 173.4L633.8 174.7L633.6 175.3L634.5 177.5L635.6 180L636.9 180.7L637.4 181.7L639.3 182.9L639.5 184.1L639.2 185.1L639.6 186L640.4 186.8L640.7 187.8L641.1 188.5L641 186.4L641.7 184.9L642.5 184.6L643.3 185.5L643.4 187.2L642.7 188.9L643.3 190L643.8 189.8L643.9 190.6L646 190.2L648.3 190.2L650 190.3L651.9 188.4L654 186.5L655.8 184.7L656.6 183.7L656.9 184L656.6 185.2L656.3 185.7L656.7 188L657.9 190L659.5 191L661.5 191.4L663.1 191.9L664.4 193.6L665.1 194.5L666.1 194.9L666.1 195.5L665.1 197.3L664.7 198.1L663.5 199L662.5 201L661.2 200.8L660.6 201.5L660.2 203L660.5 204.9L660.3 205.3L659 205.3L657.2 206.3L657 207.7L656.3 208.4L654.6 208.3L653.5 209.1L653.5 210.2L652.2 211L650.7 210.8L648.8 211.7L647.5 211.9L645.5 212.7L645 214L644.9 214.9L642.1 216.2L637.7 217.5L635.2 219.5L634 219.7L633.2 219.5L631.5 220.7L629.8 221.3L627.4 221.4L626.7 221.6L626.1 222.4L625.4 222.6L625 223.3L623.6 223.2L622.7 223.6L620.8 223.5L620.1 221.8L620.1 220.2L619.7 219.4L619.1 217.2L618.3 216.1L618.9 215.9L618.6 214.6L619 214L618.8 212.8L618.5 211.5L617.6 210.7L617.4 209.5L616 208.5L614.5 206.1L613.7 203.7L611.8 201.7L610.6 201.2L608.7 198.5L608.4 196.5L608.5 194.8L606.9 191.6L605.6 190.4L604.1 189.8L603.2 188.2L603.4 187.5L602.6 186L601.8 185.4L600.7 183.2L599 180.9L597.6 178.9L596.2 178.9L596.6 177.4L596.8 176.3L597.1 175.2L597 174.8L596.2 175.9L595.6 178.1L594.9 179.6L594.2 180.1L593.3 179.2L592 177.9L590.1 173.8L589.8 174L590.9 177.1L592.6 180L594.7 184.5L595.8 186L596.7 187.7L599.1 190.9L598.6 191.4L598.7 193.3L601.9 195.9L602.4 196.4L603.3 199.3L602.7 199.8L603.1 202.8L604.1 206.2L605.2 206.9L606.7 208L608.3 211.3L609.1 214L610.6 215.4L614.4 218.1L615.9 219.8L617.4 221.4L618.3 222.4L619.7 223.3L620.3 224.2L620.2 225.4L618.7 226.1L619.8 226.9L620.8 227.4L621.3 228.6L622.5 229.8L623.9 229.8L626.5 229.1L629.6 228.8L632 227.9L633.4 227.7L634.4 227.1L636 227L636.9 227L638.1 226.5L639.6 226.3L640.9 225.3L642 225.3L642 226.1L641.8 227.7L641.8 229.3L641.2 230.3L640.4 233.4L639.1 236.7L637.4 240.3L635 244.6L632.6 247.8L629.3 251.7L626.6 254.1L622.4 257L619.8 259.2L616.8 262.7L616.1 264.2L615.5 264.9L613.6 266L612.9 267.2L611.8 267.4L611.4 269.5L610.6 270.6L610 272.6L608.9 273.5L607.6 277.1L607.8 278.7L609.6 279.8L609.6 280.5L608.9 282.3L609 283.1L608.9 284.5L609.8 286.3L611 289.2L612 289.8L612.4 291.1L612.3 294L612.7 296.5L612.8 301L613.3 302.4L612.4 304.5L611.4 306.5L609.6 308.3L607 309.4L603.9 310.8L600.8 313.9L599.7 314.4L597.8 316.5L596.6 317.2L596.4 319.2L597.7 321.4L598.3 323.1L598.3 324L598.8 323.8L598.7 326.6L598.3 328L598.9 328.5L598.5 329.7L597.3 330.7L595 331.7L591.7 333.3L590.5 334.3L590.7 335.5L591.4 335.7L591.2 337.3L590.5 339.4L590.2 341.8L589.5 343.1L587.6 344.5L587 344.9L585.8 346.4L585.1 347.9L583.5 350L580.3 352.9L578.4 354.7L576.3 356L573.4 357.1L572 357.3L571.6 358.1L569.9 357.6L568.5 358.2L565.5 357.6L563.9 358L562.7 357.8L559.8 359L557.5 359.4L555.8 360.5L554.5 360.6L553.3 359.6L552.4 359.5L551.2 358.2L551 358.6L550.7 357.8L550.7 356.1L549.8 354.2L550.7 353.7L550.6 351.5L548.8 348.8L547.4 346.3L547.4 346.3L545.4 342.6L543.3 340.4L542.3 338.3L541.6 335.4L541 333.4L540 328.9L540 325.5L539.6 323.9L538.5 322.7L537.1 320.3L535.6 316.8L535 315L532.8 312.2L532.6 310L532.3 308.2L532.7 305.6L533.7 303L533.8 301.7L534.7 299.1L535.4 298L537 296.1L537.9 294.8L538.2 292.6L538 291L537.2 290L536.4 288.2L535.8 286.5L535.9 285.9L536.8 284.7L535.9 281.9L535.4 280L534 278.2L534.2 277.6L533.8 276.7L533.1 274.6L530.8 271.5L528 268.6L526.1 266.2L524.4 263.2L524.5 262.3L525.1 261.3L525.8 259.2L526.4 257.1L525.8 256.6L526.8 253.4L527.2 251.1L526.1 249.2L524.9 248.7L524.3 247.4L523.6 247L523.6 246.2L520.7 247.3L519.7 247.1L518.6 247.7L516.4 247.7L514.9 245.9L514 243.8L512 241.9L509.9 241.9L507.5 241.9L505.2 242.3L502.9 242.9L498.6 244.6L497 245.6L494.5 246.4L492.1 245.6L490.8 245.6L488.9 245L487.1 245.1L483.8 245.6L481.9 246.4L479.1 247.5L478.6 247.4L477.8 247.4L475 246L472.5 243.8L470.1 242.3L468.2 240.4L467.5 240.2L465.5 239L464 237.5L463.5 236.4L463.2 234.3L462 232.6L460.9 231.4L460.2 231.1L459.5 230.5L459.2 229.2L458.8 228.6L458 228.1L456.5 226.9L455.3 226.7L454.7 225.9L454.7 225.5L453.9 224.8L453.7 224.2L453.2 222L453.6 220.7L452.4 218.5L451 217.4L452.3 216.9L453.6 214.9L454.3 213.4L454 211.8L454.8 210.4L455.1 207.7L454.8 204.8L454.5 203.4L454.8 202L454.1 200.6L452.6 199.3L452.7 198.1L452.9 196.8L453.9 196L454.8 194.5L454.6 193.5L455.6 191.5L457.2 189.6L458.1 189.2L458.8 187.5L458.9 185.9L459.9 184.2L461.7 183.1L463.5 180.2L464.9 179L467.5 178.7L469.7 176.7L471.1 175.9L473.4 173.5L472.7 169.9L473.8 167.4L474.2 165.9L476 164L478.7 162.7L480.8 161.5L482.7 158.5L483.5 156.7L485.6 156.7L487.2 157.9L489.9 157.7L492.8 158.4L494 158.4L496.6 156.8L499.6 156.3L501.4 155.1L504.1 154.3L508.8 153.7L513.4 153.5L514.8 153.9L517.4 152.8L520.4 152.8L521.5 153.4L523.4 153.3L526.4 152.1L528.4 152.4L528.3 153.9L530.6 152.8L530.8 153.4L529.4 154.8L529.4 156.2L530.4 156.9L530 159.4L528.2 160.8L528.7 162.4L530.2 162.4L530.9 163.8L531.9 164.3L535.2 165.3L536.3 165L538.7 165.5L542.3 166.8L543.6 169.4L546.1 169.9L550.1 171.1L553 172.6L554.4 171.8L555.7 170.5L555.1 168.3L555.9 166.9L557.9 165.5L559.8 165.1L563.6 165.7L564.5 167L565.6 167L566.5 167.5L569.2 167.8L569.9 168.8L573.6 168.8L576.3 169.5L579 170.4L580.3 170.8L582.5 169.9L583.6 169.1L586 168.8L588 169.2L588.8 170.6L589.4 169.7L591.6 170.4L593.8 170.5L595.2 169.8L596 168.9L595.8 168.7L596.5 167.3L597.1 165.2L597.5 164.4L597.6 164.4L598.6 162L599.9 160L600 159.9L599.7 157.7L600.4 156.5L599.4 155.2L600.4 154.1L598.8 154.4L596.4 153.7L594.5 155.4L590.3 155.7L588.1 154.1L585.1 154L584.4 155.2L582.5 155.6L579.8 154L576.8 154.1L575.1 151.2L573.1 149.6L574.5 147.4L572.7 146L575.8 143.2L580.1 143.1L581.2 140.9L586.5 141.3L589.9 139.4L593.1 138.6L597.7 138.6L602.5 140.6L606.5 141.7L609.8 141.3L612.1 141.5L615.4 140L615.8 138.8L615.1 136.8L613.5 135.7L612 135.4L611 134.5L607.4 132.1L604.3 131L601.9 129.3L603.9 128.8L606.2 126.4L604.6 125.3L608.7 124.1L608.7 123.5L606.2 123.9L604 124.2L602.1 125.1L599.5 125.2L597.1 126.3L597.3 128.1L598.6 128.8L601.5 128.6L600.9 129.7L597.9 130.2L594.1 131.8L592.6 131.3L593.2 129.9L590.1 129.1L590.6 128.5L593.3 127.5L592.5 126.9L588.2 126.2L588 125.1L585.4 125.4L584.4 127L582.2 129.2L582.3 129.9L580.9 130.5L580.1 130.2L579.3 133.7L577.9 134.9L576.9 137L577.8 138.6L578.1 139.8L580.5 140.7L580 141.4L576.7 141.6L575.5 142.4L573.2 144L572.3 142.7L572.4 142.1L570.7 142L569.2 141.7L565.9 142.5L567.8 144.1L566.4 144.6L564.8 144.6L563.4 143.1L562.9 143.7L563.5 145.4L564.9 146.8L563.8 147.4L565.4 148.7L566.7 149.6L566.8 151.2L564.2 150.5L565 151.9L563.3 152.2L564.3 154.8L562.5 154.8L560.2 153.6L559.2 151.2L558.7 149.3L557.6 148L556.2 146.3L556 145.5L555.5 145.3L555.4 144.7L553.9 143.7L553.7 142.3L553.9 140.4L554.3 139.5L553.8 139L553.2 138.8L552.4 137.9L551.2 137.3L548.6 136.2L547 135.2L544.5 134.3L542.2 132.2L542.7 132L541.4 130.8L541.4 129.8L539.6 129.3L538.8 130.6L537.9 129.6L538 128.6L538.1 128.6L538.7 128.3L536.5 127.9L534.2 128.9L534.4 130.3L534.1 131.2L535 132.6L537.6 134.1L539 136.5L542.1 138.8L544.2 138.8L544.9 139.4L544.1 140L546.6 141L548.7 141.9L551 143.4L551.3 144L550.8 145L549.3 143.6L546.9 143.2L545.7 145L547.7 146.1L547.4 147.6L546.2 147.8L544.7 150.3L543.6 150.5L543.6 149.6L544.1 148.1L544.7 147.4L543.7 145.8L542.8 144.3L541.7 143.9L540.8 142.7L539.1 142.2L537.9 141L535.8 140.8L533.6 139.5L531.1 137.6L529.2 136L528.3 133.1L527 132.8L524.7 131.8L523.4 132.2L521.8 133.6L520.7 133.8L518.1 135.4L512.7 134.6L508.6 135.6L508.3 137.3L508.4 139L505.8 140.9L502.3 141.5L502 142.5L500.3 144.1L499.2 146.4L500.3 148.1L498.7 149.4L498.1 151.3L496 151.8L494 154.1L490.5 154.1L487.9 154L486.1 155.1L485.1 156.2L483.7 155.9L482.7 154.9L481.9 153.3L479.3 152.8L478.2 153.6L476.7 153.2L475.3 153.5L475.7 151.2L475.4 149.5L474.2 149.2L473.5 148.1L473.8 146.2L474.9 145.2L475.1 144L475.6 142.2L475.6 141L475 140L474.9 139L475 137L473.9 135.7L477.8 133.6L481.2 134.1L485 134.1L487.9 134.6L490.2 134.5L494.7 134.6L496.2 132.8L496.7 127.1L493.8 124L491.8 122.6L487.5 121.5L487.2 119.4L490.8 118.7L495.5 119.5L494.6 116.2L497.3 117.4L503.7 115.2L504.6 112.8L507 112.2L509.2 111.7L510.6 110.9L513.1 106.6L516.9 105.4L519.2 105.5L519.7 104.9L522 104.7L522.6 105.4L524.4 103.9L523.8 102.9L523.7 101.2L522.6 99.6L522.5 96.7L522.9 95.9L523.7 95L526.2 94.8L527.2 94L529.4 93.2L529.3 94.7L528.5 95.6L528.8 96.5L530.3 96.9L529.6 98L528.8 97.7L526.8 99.8L527.6 101.2L527.6 102.3L530.4 102.9L530.4 104L533.2 103.4L534.8 102.6L537.9 103.8L539.2 104.7L541.1 103.9L545.5 102.5L549 101.5L551.7 102L551.9 102.7L554.6 102.8L555.2 101.5L559.1 100.6L558.5 98.1L558.6 96L559.9 94.1L562.6 93.2L564.8 95.3L567 95.3L567.5 93L567.9 91.3L566.8 91.7L565.1 90.7L564.8 89L568.3 88.2L571.8 87.8L574.9 88.3L577.7 88.2L580.9 86.6L578 85.2L572.9 85.4L568 86.5L563.5 87.1L561.9 85.5L559.2 84.6L559.8 81.7L558.5 79.1L559.8 77.4L562.3 75.6L568.7 72.5L570.5 71.9L570.3 70.7L566.4 69.3L561.6 70.1L558.9 72.1L559.4 73.9L554.9 76.2L549.6 78.7L547.6 82.8L549.5 84.8L552.2 86.4L549.6 89.7L546.7 90.4L545.7 95.2L544.1 97.9L540.7 97.6L539.2 99.9L536 100.1L535.1 97.3L532.7 94.1L530.6 90L528.8 88.2L523.3 91.5L519.6 92.2L515.7 90.7L514.7 87.6L513.9 81L516.4 79.1L523.8 76.7L529.2 73.7L534.3 69.7L541 64.1L545.7 61.9L553.3 58.3L559.4 57L564 57.2L568.2 54.8L573.2 54.9L578.2 54.4L586.9 56.5L583.3 57.2L586.4 59.1L589.3 58L593.8 59.8L601.4 60.5L611.9 63.7L614.1 65.1L614.2 67L611.2 68.6L606.6 69.3L594.2 67.1L592.2 67.5L596.7 69.6L597.1 73.9L600.6 74.8L602.8 75.5L603.2 74.1L601.4 72.9L603.3 71.8L610 73.6L612.3 72.9L610.5 70.8L616.9 68L619.5 68.1L622.1 69.1L623.7 67.1L621.4 65.4L622.7 63.7L620.7 61.9L628.5 62.8L630.1 64.5L626.5 64.8L626.6 66.4L628.7 67.4L633 66.8L633.7 64.9L639.5 63.6L649.2 61.1L651.3 61.2L648.6 63L652 63.3L654 62.3L659.2 62.2L663.3 61L666.5 62.8L669.7 60.8L666.7 59.2L668.2 58.2L676.4 59.1L680.2 60L690.3 63.3L692.2 61.8L689.3 60.2L689.3 59.6L685.9 59.4L686.8 58L685.3 55.7L685.3 54.8L690.4 52.2L692.2 49.6L694.3 49L701.6 49.8L702.2 51.4L699.6 53.7L701.3 54.6L702.2 56.6L701.6 60.6L704.6 62.4L703.4 64.3L698 68.4L701.2 68.8L702.3 67.8L705.3 67.1L706.1 65.6L708.5 64.2L706.9 62.6L708.2 60.7L705.1 60.5L704.4 58.9L706.7 55.9L703.1 53.6L708 51.7L707.4 49.6L708.8 49.5L710.2 51.1L709.1 53.9L712.1 54.4L710.8 52.4L715.5 51.2L721.3 51.1L726.4 52.7L723.9 50.3L723.6 47.2L728.5 46.7L735.2 46.8L741.2 46.4L738.9 44.9L742.1 43L745.3 42.9L750.7 41.5L758.1 41.1L759 40.3L766.3 40L768.5 40.7L774.8 39.2L779.9 39.2L780.7 38L783.3 36.7L789.9 35.5L794.6 36.5L790.8 37.2L797.1 37.6L797.9 39.1L800.4 38.4L808.5 38.4L814.8 39.8L817 40.9L816.3 42.4L813.3 43.2L806 44.8L803.9 45.7L807.3 46.1L811.4 46.8L813.9 46.3L815.4 48.1L816.6 47.4L821 46.9L829.9 47.4L830.6 48.8L842.2 49.2L842.4 47L848.3 47.5L852.7 47.5L857.2 49L858.5 50.8L856.8 52.1L860.3 54.3L864.7 55.5L867.4 52.5L871.8 53.8L876.6 53L881.9 53.9L884 53.1L888.5 53.5L886.5 50.8L890.2 49.5L915.3 51.4L917.6 53.1L924.9 55.3L936.1 54.8L941.7 55.3L944 56.5L943.6 58.6L947.1 59.4L950.8 58.8L955.7 58.7L960.9 59.3L966.2 59L971 61.6L974.5 60.6L972.2 58.8L973.5 57.5L982.3 58.3L988.1 58.1L996.1 59.5M0 60.8ZM636.4 140.7L637.8 142.8L639.1 142.9L640 143.7L637.7 143.9L637.2 146.2L636.7 147.2L635.7 147.9L635.8 149.3L636.7 151.4L639.3 152L641.2 153.5L645.2 154L649.5 153.2L649.8 152.5L649.3 150.5L649.7 147.5L647.5 146.5L648.2 144.5L646.4 144.3L647 141.9L649.6 142.6L652 141.7L650 140L649.2 138.3L647 139L646.7 141.2L645.8 139.3L645.7 138.6L646.4 137.4L645.8 136.4L642.6 135.4L641.4 132.8L639.8 132.1L639.7 131.1L642.4 131.4L642.5 129.3L644.9 128.8L647.3 129.3L647.8 126.4L647.3 124.6L644.6 124.8L642.2 124.1L639 125.4L636.4 126L635.1 127.7L632.4 128.1L629.7 131.1L632.2 133.9L631.9 135.8L635 139.2L636.4 140.7ZM234.3 60.4L232.6 61.4L228.8 60.5L226.6 60.8L222.8 59.5L225.2 58.6L227.2 57.4L230.1 58.2L231.8 58.7L232.6 59.3L234.3 60.4ZM0 53.4M1000 55.4L996.9 55.5L996.5 54.6M0 53.4ZM0 53.4L0.4 53.3L2.7 53.3L6.7 54.1L6.5 54.5L3.6 55.2L0 55.4L0 53.4ZM248.5 59.2L248.5 62.2L252.2 59.9L255.5 61.8L254.7 63.9L257.4 65.9L260.3 63.8L262.3 61.3L262.4 58.1L266.4 58.3L270.5 58.8L274.2 60.2L274.4 61.6L272.3 63.2L274.3 64.7L273.9 66.1L268.5 68.1L264.6 68.6L261.8 67.7L260.9 69.2L258.2 71.6L257.4 72.9L254.2 74.8L250.2 75L248 76.2L247.9 78.1L244.6 78.5L241.2 80.8L238.2 84.1L237.1 86.3L237 89.7L241.1 90.2L242.3 92.9L243.6 95.1L247.5 94.5L252.7 95.8L255.4 96.9L257.4 98.2L260.9 99L263.9 100.2L268.4 100.4L271.5 100.7L271 103.2L271.9 106.1L273.9 109.3L278 112.1L280.2 111.1L281.7 108.2L280.2 103.6L278.3 102.1L282.7 100.7L285.8 98.7L287.4 96.7L287.2 94.7L285.3 92.3L281.9 90.1L285.2 87.1L284 84.5L283 80L285 79.3L289.7 80.1L292.6 80.4L294.9 79.6L297.5 80.6L300.9 82.3L301.7 83.4L306.7 83.6L306.6 86L307.5 89.7L310.1 90.1L312.1 91.8L316.1 90.2L318.8 87L320.6 85.7L322.8 88.3L326.4 92L329.5 95.4L328.3 97.2L332 98.9L334.5 100.5L339 101.3L340.7 102.2L341.8 104.6L344 105L345.1 106.1L345.3 109.4L343.3 110.4L341.3 111.5L336.7 112.5L333.2 114.9L328.5 115.3L322.6 114.7L318.4 114.7L315.6 114.9L313.2 117L309.7 118.2L305.7 122.1L302.5 124.7L304.8 124.3L309.3 120.5L315.1 118.1L319.3 117.8L321.7 119.2L319.1 121.1L320 124.2L320.9 126.4L324.5 127.9L329.1 127.4L331.9 124.2L332.1 126.3L333.9 127.3L330.4 129.2L324.3 131L321.5 132.1L318.4 134.2L316.3 134L316.2 131.5L321 129.2L316.6 129.3L313.5 129.6L314 130.6L311 131.9L308.2 132.9L305.2 133.8L303.6 135.7L303.3 136.2L303.3 137.7L304.2 139.2L305.3 139.3L305 138.2L305.9 138.9L305.7 139.7L303.8 140.2L302.4 140.1L300.4 140.6L299.2 140.8L297.6 140.9L295.3 141.8L299.3 141.2L300.2 141.8L296.3 142.6L294.5 142.6L294.6 142.3L293.7 143.1L294.6 143.2L294 145.3L291.9 147.5L291.7 146.8L291.1 146.6L290.2 145.9L290.8 147.4L291.4 148L291.5 149.1L290.6 150.2L289.1 152.5L288.8 152.4L289.7 150.4L288.2 149.3L287.9 146.9L287.4 148.1L288 150L286.2 149.6L288.1 150.5L288.2 153.2L289 153.4L289.3 154.4L289.6 157.3L287.9 159.4L285 160.3L283.2 162L281.8 162.2L280.4 163.2L280 164.2L276.9 166.1L275.4 167.5L274.1 169.2L273.6 171.2L274.1 173.2L275.1 175.7L276.3 177.7L276.3 179L277.6 182.3L277.5 184.3L277.4 185.4L276.7 187.2L275.9 187.5L274.5 187.2L274.1 185.9L273 185.3L271.6 182.8L270.3 180.6L269.8 179.4L270.4 177.5L269.6 175.9L267.5 173.5L266.4 173.1L263.6 174.4L263.1 174.2L261.7 172.9L260 172.2L256.9 172.5L254.4 172.2L252.3 172.4L251.1 172.8L251.6 173.6L251.6 174.8L252.2 175.4L251.6 175.8L250.6 175.3L249.6 175.9L247.6 175.8L245.5 174.3L243.1 174.6L241 174L239.3 174.2L237 174.8L234.4 177L231.7 178.2L230.2 179.6L229.5 180.9L229.5 182.9L229.6 184.3L230.2 185.3L230.2 185.3L230.2 185.3L229.1 187.8L228.6 189.9L228.4 193.7L228.1 195.2L228.6 196.7L229.5 198.1L230 200.4L231.9 202.5L232.5 204.2L233.6 205.6L236.6 206.4L237.7 207.6L240.1 206.8L242.3 206.5L244.3 206L246.1 205.5L247.9 204.3L248.5 202.6L248.7 200.2L249.2 199.3L251.1 198.6L254 197.9L256.5 198L258.2 197.8L258.9 198.4L258.8 199.8L257.3 201.5L256.6 203.2L257.1 203.7L256.7 205L256 207.2L255.3 206.5L254.7 206.6L254.7 207L255.3 207L255.2 207.8L254.8 209L255 209.5L254.7 210.5L254.9 210.8L254.6 212.2L254 213L253.5 213.1L253 214.1L253.9 214.6L254.1 214.2L254.9 214.6L255.2 214.7L255.8 214.2L256.6 214.1L256.9 214.4L257.3 214.2L258.6 214.5L259.9 214.4L260.8 214.1L261.1 213.8L262 213.9L262.7 214.1L263.4 214L263.9 213.8L265.2 214.2L265.6 214.3L266.5 214.8L267.3 215.4L268.3 215.9L269 216.7L268.8 217L268.7 217.6L268.9 218.7L268.3 219.6L268 220.8L267.9 222.1L268.1 222.8L268.1 224.1L267.7 224.4L267.4 225.6L267.6 226.4L267.1 227.1L267.2 227.9L267.6 228.4L268.3 230L269.4 231.1L270.7 232.4L271.7 233.4L271.6 234L272.8 234.1L273 233.9L273.8 234.6L275.1 234.4L276.3 233.7L278 233.1L279 232.2L280.5 232.4L280.4 232.7L281.9 232.8L283.2 233.3L284.1 234.2L285.1 235L286.6 235L288.7 233L289.8 232.7L289.8 231.8L290.3 229.3L291.9 228L293.7 227.9L293.9 227.3L296.1 227.6L298.3 226.1L299.3 225.5L300.7 224.1L301.7 224.2L302.4 225L301.9 226L301.8 226.7L300.1 227L301.1 228.3L301 229.8L299.8 231.5L300.8 233.8L302 233.6L302.7 231.5L301.8 230.5L301.7 228.3L305.1 227.1L304.7 225.8L305.7 224.9L306.7 226.9L308.7 226.9L310.5 228.6L310.6 229.5L313.1 229.5L316 229.2L317.6 230.5L319.8 230.9L321.3 230L321.3 229.3L324.8 229.1L328.1 229L325.8 229.9L326.7 231.3L328.9 231.5L331 232.9L331.5 235.2L332.9 235.1L334 235.8L335.8 236.9L337.5 238.8L337.6 240.3L338.7 240.3L340.2 241.7L341.3 242.7L344.6 243.3L344.9 242.8L347.1 242.6L350.1 243.4L351.1 243.7L353.1 244.4L356 246.8L356.5 248L357.5 247.9L358.1 249.5L359.7 254.5L361.2 255L361.3 257L359.2 259.4L360 260.2L364.9 260.7L365 263.6L367.2 261.7L370.6 262.7L375.3 264.5L376.6 266.2L376.2 267.8L379.4 266.9L384.8 268.4L388.9 268.3L393.1 270.7L396.6 273.9L398.7 274.8L401.1 274.9L402.1 275.8L403.1 279.5L403.5 281.2L402.4 286L401 287.9L397.1 291.9L395.3 295.2L393.3 297.7L392.6 297.7L391.8 299.8L392 305.3L391.2 309.7L390.9 311.6L390 312.8L389.6 316.6L386.7 320.4L386.3 323.4L384 324.6L383.4 326.4L380.3 326.4L376 327.5L374 328.7L370.9 329.6L367.6 331.9L365.3 334.8L364.9 336.9L365.3 338.5L364.8 341.4L364.2 342.8L362.3 344.4L359.2 349.5L356.7 351.8L354.8 353.2L353.6 355.9L351.7 357.6L350.5 359.4L347.4 361L345.4 360.4L343.8 360.7L341.3 359.5L339.4 359.6L337.7 358L337.5 359.5L341 361.9L340.7 363.9L342.4 365.2L342.3 366.6L339.6 370.3L335.5 371.9L329.9 372.5L326.8 372.2L327.4 373.9L326.9 376.1L327.4 377.5L325.7 378.5L322.9 378.9L320.2 377.9L319.1 378.6L319.5 381.5L321.4 382.4L322.9 381.5L323.7 383L321.2 383.9L318.9 385.7L318.5 388.6L317.9 390.1L315.3 390.1L313.1 391.6L312.3 393.8L315 395.9L317.7 396.5L316.7 399.1L313.4 400.7L311.6 404.1L309.1 405.2L308 406.6L308.8 409.6L310.7 411.2L309.5 411.1L307.1 411.1L305.7 411.8L303.2 412.8L302.8 415.5L301.6 415.6L298.5 414.6L295.3 412.6L291.8 411L290.9 409.2L291.7 407.5L290.3 405.5L290 400.6L291.2 397.8L294.1 395.6L289.9 394.8L292.5 392.2L293.5 387.4L296.6 388.4L298 382.4L296.1 381.7L295.3 385.3L293.5 384.9L294.4 380.7L295.3 375.4L296.6 373.4L295.8 370.6L295.6 367.3L296.8 367.2L298.5 362.6L300.4 358L301.6 353.7L300.9 349.3L301.8 346.9L301.4 343.4L303 339.9L303.5 334.3L304.4 328.3L305.3 321.8L305.1 317.1L304.5 313L301.7 311.3L301.5 310.2L296 307.3L291 304.1L288.9 302.3L287.7 299.9L288.2 299.1L285.8 295.3L283.1 290L280.5 284.2L279.3 282.9L278.4 280.8L276.3 278.9L274.3 277.7L275.2 276.4L273.9 273.7L274.7 271.7L276.9 269.8L278.4 267.7L277.8 266.4L276.8 267.8L275.1 266.5L275.7 265.7L275.2 263.1L276.2 262.6L276.7 260.8L277.7 259L277.5 257.8L279.1 257.2L281 256L280.6 255.1L281.6 254.9L281.5 253.5L282.1 252.4L283.5 252.2L284.7 250.4L285.8 248.9L284.7 248.2L285.3 246.5L284.6 243.9L285.2 243.1L284.8 240.7L283.7 239.1L282.7 238.3L282.1 236.7L282.8 236L282.1 235.8L281.6 234.8L280.2 234L279 234.2L278.4 235.2L277.3 235.9L276.7 236L276.4 236.6L277.8 238.2L277 238.6L276.6 239L275.3 239.1L274.8 237.4L274.5 237.9L273.6 237.7L273 236.6L271.9 236.4L271.1 236L269.9 236L269.9 236.7L269.5 236.2L268 235.6L267.5 235L267.8 234.5L267.7 233.9L266.9 233.2L265.8 232.6L264.9 232.2L264.7 231.4L264 230.9L264.1 231.7L263.6 232.4L262.9 231.6L262.1 231.3L261.7 230.7L261.7 229.8L262.1 228.9L261.3 228.5L261.9 228L261 227.1L259.7 225.9L259 224.9L257.9 224L256.5 222.7L256.8 222.3L257.2 222.7L257.5 222.5L257 221.6L256.1 221.3L255.8 222L254.2 222L253.2 221.7L252.1 221.1L250.5 220.9L249.7 220.3L248.3 219.8L246.6 219.8L245.3 219.2L243.8 218L240.7 214.9L239.2 213.9L237 213.2L235.4 213.4L233.2 214.5L231.8 214.8L229.8 214L227.7 213.5L225.1 212.1L223.1 211.7L219.9 210.4L217.6 209L216.9 208.2L215.3 208.1L212.5 207.2L211.3 205.8L208.4 204.2L207 202.4L206.3 201L207.2 200.7L206.9 199.9L207.6 199.1L207.6 198.1L206.7 196.8L206.4 195.7L205.5 194.2L203 191.3L200.2 189.1L198.9 187.3L196.5 186.1L196 185.4L196.4 183.6L195 182.9L193.4 181.5L192.7 179.5L191.2 179.3L189.6 177.8L188.3 176.4L188.1 175.5L186.6 173.3L185.7 171.1L185.7 170L183.7 168.8L182.8 168.9L181.2 168.1L180.7 169.3L181.2 170.7L181.5 172.9L182.4 174.1L184.5 176L184.9 176.7L185.4 176.9L185.7 177.9L186.2 177.9L186.8 179.7L187.6 180.5L188.2 181.5L190 183L190.9 185.7L191.7 186.9L192.5 188.3L192.6 189.8L194 189.9L195.1 191.2L196.1 192.5L196 193L194.9 194.1L194.4 194.1L193.6 192.3L191.8 190.7L189.8 189.3L188.4 188.5L188.5 186.4L188.1 184.9L186.7 184L184.8 182.7L184.5 183L183.8 182.3L182 181.6L180.4 179.9L180.6 179.7L181.8 179.9L182.8 178.8L182.9 177.5L180.7 175.4L179.1 174.6L178.1 172.8L177.1 170.9L175.8 168.6L174.6 166L174.2 164.5L172.4 162.9L171.1 162.5L170.8 161.7L169.2 161.6L168.2 160.8L165.6 160.5L164.9 160L164.6 158.4L161.9 155.5L159.6 151.5L159.7 150.8L158.5 149.9L156.3 147.5L155.9 145.1L154.5 143.5L155.1 141.1L155 138.7L154.1 136.5L155.2 133.7L155.8 128.5L155.3 124.6L154.5 122.1L153.7 120.8L154 120.2L158 121.2L159.5 123.9L160.2 123.2L159.7 120.8L158.8 118.4L158.4 118.4L153 115.6L151 114.4L146 113.2L144.5 110.6L144.9 108.8L141.3 107.6L140.8 105.3L137.5 103.2L137.4 101.7L135.9 100.6L133.4 99.7L132.6 97.2L129.1 94.8L127.6 92.1L124.9 91.9L120.5 91.8L117.2 91L111.5 88L108.8 87.5L104 86.4L100.1 86.7L94.7 85.3L91.4 84.1L88.3 84.7L88.8 86.7L87.3 86.9L84.1 87.5L81.6 88.5L78.6 89.1L78.2 87.4L79.4 84.6L82.4 83.7L81.6 83L78.1 84.6L76.2 86.5L72.2 88.5L74.2 89.9L71.6 92L68.6 93.2L65.8 94.1L65.1 95.4L60.8 96.9L59.9 98.2L56.7 99.5L54.8 99.3L52.2 100.1L49.3 101L47 102L42.3 102.8L41.8 102.3L44.9 101L47.6 100.1L50.5 98.5L54 98.2L55.4 97L59.2 95.3L59.8 94.7L61.9 93.7L62.4 91.5L63.8 89.8L60.6 90.7L59.7 90.2L58.2 91.2L56.4 89.8L55.6 90.8L54.6 89.4L51.8 90.5L50.1 90.5L49.9 88.8L50.4 87.7L48.6 86.7L45 87.2L42.6 85.9L40.7 85.2L40.7 83.6L38.6 82.3L39.6 80.7L41.9 79.1L42.9 77.6L45.1 77.4L47 77.8L49.3 76.4L51.3 76.7L53.4 75.8L52.9 74.5L51.3 73.9L53.4 72.8L51.7 72.9L48.7 73.5L47.9 74.1L45.7 73.5L41.8 73.8L37.7 73.1L36.5 72L33 70.3L36.9 69.1L43.1 67.7L45.4 67.7L45 69.1L50.9 69L48.6 67.2L45.2 66.1L43.3 64.7L40.6 63.4L36.8 62.5L38.3 61L43.3 60.9L46.8 59.6L47.4 58.2L50.3 56.8L53 56.5L58.2 55.2L60.8 55.4L65.1 53.9L69.3 54.5L71.3 55.8L72.5 55.2L77.2 55.4L77 56L81.3 56.5L84.1 56.2L90 57.2L95.3 57.4L97.4 57.8L101.1 57.3L105.4 58.2L108.4 58.6L113.6 59.3L117.9 60.7L120.8 61L123.3 59.8L126.6 58.9L130.8 59.2L134.9 57.9L139.5 57.2L141.4 58.4L143.4 57.7L144.1 56.4L146 56.7L150.7 59.3L154.4 57.3L154.8 59.5L158.2 59L159.2 58.2L162.6 58.4L166.8 59.6L173.3 60.6L177.2 61.1L179.9 60.9L183.6 62.4L179.7 63.8L184.7 64.5L192.2 64.1L194.6 63.6L197.6 65.3L200.6 63.9L197.7 62.7L199.5 61.7L202.9 61.5L205.1 61.2L207.4 61.9L210.2 63.5L213.3 63.3L218.2 64.6L222.5 64.1L226.5 64.2L226.2 62.4L228.7 61.9L233 62.9L233 65.6L234.8 63.3L237 63.4L238.2 60.5L235.3 58.7L232 57.5L232.2 54.3L235.5 52.2L239.2 52.7L242 54L245.8 57.2L243.3 58.6L248.5 59.2ZM182.9 48.8L181.5 50.1L187.7 49.2L191.5 50.7L194.7 49.2L197.2 50.2L199.5 53L200.9 51.8L198.9 48.9L201.3 48.4L204.1 48.9L207.2 50.1L209 52.9L209.8 54.9L214.5 56.3L219.5 57.7L219.2 59L214.6 59.2L216.4 60.3L215.5 61.4L210.4 60.9L205.7 60.1L202.4 60.3L197.2 61.3L189 61.8L185.2 62L183.7 60.6L179.9 59.9L177.5 60.2L174.1 57.9L175.9 57.6L180.2 57.1L184.1 57.2L187.7 56.7L182.4 56L176.4 56.3L172.5 56.2L171 55.2L177.5 54L173.2 54L168.3 53.3L170.7 51.1L172.6 50L180 48.2L182.9 48.8ZM287.9 48.8L288.2 49.6L285.2 49.5L282.2 49.5L279.2 49.9L278.4 49.7L275.3 48.2L275.5 47.1L276.8 46.9L283.2 47.2L287.9 48.8ZM259.6 48.7L261.7 50.5L264.3 48.1L271.3 46.9L276.1 49.9L275.7 51.8L281.2 51L283.8 49.8L290 51.3L293.8 52.7L294.2 53.9L299.3 53.3L302.2 55.1L308.9 56.3L311.3 57.4L314 60.1L308.9 61.5L315.4 63.4L319.8 64L323.8 66.7L328.2 66.8L327.3 68.9L322.5 72.2L319 71L314.7 68.2L311.1 68.6L310.7 70.2L313.6 71.9L317.4 73.2L318.6 74L320.4 76.9L319.4 78.9L315.9 78.2L308.9 75.8L312.9 78.3L315.8 80.1L316.2 81.1L308.7 79.9L302.7 78.3L299.3 76.9L300.3 76L296.2 74.5L292.1 73.2L292.2 74L284.1 74.4L281.8 73.5L283.6 71.3L288.8 71.3L294.6 70.9L293.6 69.9L294.6 68.4L298.2 65.6L297.4 64.3L296.4 63.4L292.1 62L286.5 61L288.3 60.2L285.3 58.4L282.9 58.3L280.7 57.3L279.2 58.2L274.2 58.5L264 57.9L258.2 57L253.7 56.6L251.4 55.6L254.3 54.3L250.3 54.2L249.4 51.3L251.6 48.7L254.4 47.6L261.6 46.8L259.6 48.7ZM221.2 46.7L224.5 47.3L229.5 46.9L230.2 47.8L227.6 49.1L231.8 50.4L231.3 53L226.8 54.1L224.1 53.9L222.2 52.8L215.3 50.5L215.3 49.6L221 50L217.9 48.1L221.2 46.7ZM898.9 48.5L894.7 48.5L889 48.2L888.5 48L891.1 46.9L894.6 46.6L898.6 47.7L898.9 48.5ZM241.1 49.8L238.1 51.9L235 51.8L233.2 49.3L233.3 47.8L234.7 46.6L237.5 45.8L243.3 45.9L248.6 46.6L244.4 49.2L241.1 49.8ZM165.4 53.7L158.1 55.2L156.6 53.9L150.2 52.4L151.1 51.4L153.3 49L155.7 47.1L153 45.4L162.4 44.9L166.4 45.5L173.5 45.7L176.2 46.5L179.1 47.7L175.6 48.5L168.8 50.5L165.4 52.5L165.4 53.7ZM918.7 43.1L915.5 44.2L911 44L905.9 42.8L906.5 41.9L911.7 42.3L918.7 43.1ZM240 43.4L238.5 44.5L234.4 44.3L231.1 43.5L232.5 42.2L236.5 41.5L239 42.5L240 43.4ZM903 41.7L900.8 43.9L890.6 43.8L886 44.5L880.5 42.6L882 40.6L885.6 40L893 40.2L903 41.7ZM226.4 38.4L228.5 39.7L228.6 41.2L227.3 43.3L222.8 43.6L219.8 43.2L219.8 41.5L215.3 41.7L215.1 39.5L218.1 39.6L222.3 38.6L226.2 38.7L226.4 38.4ZM199.4 39.9L200.5 40.9L203 40.4L205.9 40.5L206.4 41.9L204.7 43.3L195.3 43.8L188.3 45L184 45.1L183.7 44.1L189.5 42.9L176.9 43.2L173 42.7L176.8 39.9L179.4 39.1L187.3 40L192.2 41.7L197 42L193.1 39.2L195.6 38.2L198.5 38.5L199.4 39.9ZM659.8 55.7L658.2 55.9L649.1 55.6L648.4 54.3L643.3 53.5L642.9 52L645.8 51.3L645.7 49.8L651.2 47.3L648.6 46.9L655.3 44.4L654.5 43.1L660.7 41.6L669.9 39.7L679.2 39.2L683.9 38.1L689.3 37.7L691.3 38.9L689.4 39.8L679.5 41.2L671.1 42.6L662.4 45.3L658.3 48.2L653.9 50.9L654.5 53.3L659.8 55.7ZM237 37.3L240.1 38.2L245.5 38.2L247.9 39.1L247.3 40.2L250.5 40.9L252.3 41.6L256 41.7L260.1 41.9L264.5 41.3L270.1 41.1L274.6 41.3L277.6 42.4L278.2 43.6L276.5 44.3L272.4 44.9L268.8 44.6L260.8 45L255.1 45.1L250.7 44.7L243.3 43.8L242.3 42.2L242 40.8L239.2 39.5L233.4 39.2L230.2 38.3L231.3 37.1L237 37.3ZM177.2 35.7L176.8 37.9L174.7 38.9L172.1 39.1L166.9 40.3L162.5 40.7L158.7 40.1L163.5 37.9L169.2 36.1L173.4 36.1L177.2 35.7ZM193.9 35.5L188.7 36.4L184.6 35.4L186.9 34.5L190.9 34.2L194.9 34.7L193.9 35.5ZM568.7 35.1L562.5 36.3L557.6 35.6L559.5 34.9L557.8 33.9L563.6 33.4L564.7 34.4L568.7 35.1ZM233.8 34.5L229.7 35.1L227.4 34.4L226.2 33.3L226 32.1L229.6 32.3L231.2 32.5L234.6 33.5L233.8 34.5ZM222.1 33.7L223.1 34.9L218.6 34.6L214 33.7L207.8 33.6L210.5 32.7L207.2 32L207 30.9L212.4 31.3L219.9 32.4L222.1 33.7ZM791.9 33.8L776.2 34.9L781.3 31.1L783.6 30.8L785.7 31L792.7 32.6L791.9 33.8ZM550.7 29.8L559.8 31.9L552.9 33L551.3 35.2L548.9 35.7L547.6 38.1L544.2 38.2L538.2 36.5L540.7 35.4L536.6 34.6L531.2 32.2L529 29.9L536.6 28.9L538.1 29.9L542.1 29.8L543.1 28.8L547.2 28.7L550.7 29.8ZM570.7 27.7L576.1 28.7L572 30.3L564 30.6L555.8 30.1L555.3 29.3L551.3 29.3L548.2 28L556.8 27.2L560.9 27.9L563.7 27L570.7 27.7ZM642 27.3L638.3 27.7L635.8 27.9L635.4 28.4L632.2 28.9L629.2 28.2L630.8 27.3L624.6 27.2L630 26.7L634.2 26.6L634.8 27.4L636.4 26.7L639 26.2L643.1 26.9L642 27.3ZM777.6 32.1L771.5 32.5L763.8 31.6L759.2 30.5L757.1 28.5L753.3 27.9L760.5 25.9L766.5 25.3L771.9 26.7L778.3 29.5L777.6 32.1ZM258.3 29.9L261.6 30.8L257.8 31.7L252.7 33.8L247.8 34L242 33.7L239 32.5L239.1 31.4L241.3 30.7L236.2 30.7L233.1 29.7L231.4 28.4L233.3 27.2L235.2 26.3L238.1 26.1L236.8 25.4L243.3 25.3L246.9 26.8L251.5 27.4L256.1 28L258.3 29.9ZM309.7 19.9L317.1 20.1L323.1 20.5L328.2 21.3L328.1 22.1L321.3 23.3L314.6 23.9L312.1 24.6L318.1 24.5L311.6 26.3L307 27.1L302.3 29.5L296.5 29.9L294.8 30.5L286.4 30.8L290.2 31.2L288.3 31.7L290.6 33.1L287.9 34.1L283.6 35L282.3 36.1L278.4 36.9L278.8 37.6L283.6 37.5L283.6 38.2L276.2 39.9L269 39.1L260.8 39.6L256.7 39.2L251.4 39.1L251.1 37.7L256.2 37L254.8 35L256.5 34.8L264 36L260.2 34.1L255.7 33.6L257.9 32.5L262.8 31.8L263.6 30.8L259.7 29.6L258.5 28.2L266.1 28.3L268.3 28.6L272.6 27.5L266.4 27.2L256.7 27.4L251.8 26.4L249.4 25.2L246.2 24.4L245.6 23.4L249.7 22.9L253 22.8L258.4 22.3L262.5 21.2L265.9 21.4L268.9 22.2L271.1 20.6L274.7 20.2L279.7 19.8L288.2 19.7L289.7 20L297.7 19.5L303.7 19.7L309.7 19.9ZM424.7 18.7L442.1 21L437 22.1L426.3 22.3L411.4 22.5L412.8 23L422.6 22.7L431 23.7L436.4 22.8L438.7 23.9L435.6 25.6L442.7 24.5L456.2 23.4L464.5 23.9L466.1 25.2L454.8 27.2L453.2 27.9L444.3 28.4L450.7 28.5L447.5 30.6L445.3 32.5L445.4 35.7L448.7 37.6L444.3 37.7L439.8 38.6L444.9 40.2L445.6 42.6L442.6 42.9L446.2 45.4L440 45.6L443.2 46.8L442.3 47.8L438.4 48.2L434.5 48.2L438 50.2L438.1 51.5L432.6 50.3L431.1 51L434.9 51.8L438.5 53.5L439.6 55.9L434.6 56.4L432.5 55.3L429 53.6L430 55.6L426.8 57.1L434.1 57.2L437.9 57.4L430.5 59.9L422.9 62.2L414.8 63.2L411.7 63.2L408.9 64.3L405 67.4L399 69.4L397.1 69.5L393.4 70.2L389.4 70.9L387 72.7L387 74.7L385.6 76.6L381.1 78.9L382.2 81.2L380.9 83.6L379.5 86.4L375.6 86.6L371.5 84.2L365.9 84.2L363.2 82.6L361.4 79.8L356.6 76.2L355.2 74.3L354.8 71.7L350.9 69L351.9 66.9L350.1 65.9L352.8 62.5L357 61.4L358.1 60.2L358.7 58L355.5 59L354 59.4L351.5 59.8L348.1 58.9L347.9 56.9L349 55.4L351.6 55.4L357.3 56.1L352.5 54.3L350 53.3L347.2 53.7L344.9 53L348 50.3L346.3 49.2L344.1 47.2L340.8 44.2L337.2 43L337.3 41.8L329.8 40.1L323.9 39.9L316.5 40.1L309.7 40.3L306.5 39.3L301.7 37.5L309 36.6L314.5 36.5L302.7 35.7L296.4 34.5L296.8 33.4L307.3 32L317.5 30.6L318.5 29.6L311 28.5L313.5 27.4L323.1 25.4L327.1 25.1L326 23.8L332.6 23L341.1 22.6L349.6 22.5L352.7 23.4L360 21.8L366.7 22.9L370.6 23.2L376.3 24.1L369.7 22.5L370.1 21.3L379.4 19.6L389.2 19.7L392.7 18.6L402.5 18.4L424.7 18.7Z" fill="none" stroke="#E6ECF5" stroke-opacity="0.13" stroke-width="0.7" vector-effect="non-scaling-stroke"/>
</svg>
